<!-- Generated by IcoMoon.io -->
<svg version="1.1" xmlns="http://www.w3.org/2000/svg" width="18" height="18" viewBox="0 0 18 18">
<title>account-tie</title>
<path d="M9 2.25c1.657 0 3 1.343 3 3v0c0 1.657-1.343 3-3 3v0c-1.657 0-3-1.343-3-3v0c0-1.657 1.343-3 3-3v0zM12 10.155c0 0.795-0.21 2.647-1.643 4.717l-0.607-3.623 0.705-1.41c-0.465-0.053-0.953-0.090-1.455-0.090s-0.99 0.037-1.455 0.090l0.705 1.41-0.607 3.623c-1.432-2.070-1.643-3.923-1.643-4.717-1.792 0.525-3 1.47-3 2.595v3h12v-3c0-1.125-1.2-2.070-3-2.595z"></path>
</svg>
