<!-- Generated by IcoMoon.io -->
<svg version="1.1" xmlns="http://www.w3.org/2000/svg" width="18" height="18" viewBox="0 0 18 18">
<title>account-search</title>
<path d="M11.625 9c1.875 0 3.375 1.5 3.375 3.375 0 0.66-0.188 1.283-0.518 1.8l2.31 2.325-1.043 1.043-2.34-2.303c-0.518 0.323-1.133 0.51-1.785 0.51-1.875 0-3.375-1.5-3.375-3.375s1.5-3.375 3.375-3.375zM11.625 10.5c-1.036 0-1.875 0.839-1.875 1.875v0c0 1.036 0.839 1.875 1.875 1.875v0c1.036 0 1.875-0.839 1.875-1.875v0c0-1.036-0.839-1.875-1.875-1.875v0zM7.5 3c1.657 0 3 1.343 3 3v0c0 0.683-0.233 1.313-0.615 1.823-0.645 0.24-1.223 0.622-1.702 1.103l-0.683 0.075c-1.657 0-3-1.343-3-3v0c0-1.657 1.343-3 3-3v0zM1.5 15v-1.5c0-1.59 2.483-2.895 5.625-3-0.24 0.585-0.375 1.215-0.375 1.875 0 0.967 0.285 1.875 0.75 2.625h-6z"></path>
</svg>
