<!-- Generated by IcoMoon.io -->
<svg version="1.1" xmlns="http://www.w3.org/2000/svg" width="18" height="18" viewBox="0 0 18 18">
<title>account-lock</title>
<path d="M16.5 12.75v-0.375c0-1.035-0.84-1.875-1.875-1.875s-1.875 0.84-1.875 1.875v0.375c-0.413 0-0.75 0.338-0.75 0.75v3c0 0.413 0.338 0.75 0.75 0.75h3.75c0.413 0 0.75-0.338 0.75-0.75v-3c0-0.413-0.337-0.75-0.75-0.75zM15.75 12.75h-2.25v-0.375c0-0.622 0.503-1.125 1.125-1.125s1.125 0.503 1.125 1.125v0.375zM6 6c0-1.657 1.342-3 3-3s3 1.342 3 3-1.342 3-3 3-3-1.342-3-3zM10.5 15h-7.5v-1.5c0-1.657 2.685-3 6-3 0.953 0 1.845 0.113 2.647 0.307-0.158 0.307-0.285 0.63-0.345 0.975-0.487 0.413-0.802 1.027-0.802 1.718v1.5z"></path>
</svg>
