<!-- Generated by IcoMoon.io -->
<svg version="1.1" xmlns="http://www.w3.org/2000/svg" width="18" height="18" viewBox="0 0 18 18">
<title>account-edit</title>
<path d="M16.275 10.013l-0.75 0.75-1.538-1.538 0.75-0.75c0.158-0.157 0.42-0.157 0.577 0l0.96 0.96c0.158 0.158 0.158 0.42 0 0.577zM9 14.205l4.545-4.545 1.538 1.538-4.537 4.553h-1.545v-1.545zM9 10.5c-3.315 0-6 1.342-6 3v1.5h4.5v-1.417l3-3c-0.495-0.060-0.998-0.082-1.5-0.082zM9 3c-1.657 0-3 1.343-3 3v0c0 1.657 1.343 3 3 3v0c1.657 0 3-1.343 3-3v0c0-1.657-1.343-3-3-3v0z"></path>
</svg>
