<!-- Generated by IcoMoon.io -->
<svg version="1.1" xmlns="http://www.w3.org/2000/svg" width="18" height="18" viewBox="0 0 18 18">
<title>account-group</title>
<path d="M9 4.125c1.45 0 2.625 1.175 2.625 2.625v0c0 1.45-1.175 2.625-2.625 2.625v0c-1.45 0-2.625-1.175-2.625-2.625v0c0-1.45 1.175-2.625 2.625-2.625v0zM3.75 6c0.42 0 0.81 0.112 1.147 0.315-0.112 1.072 0.202 2.138 0.847 2.97-0.375 0.72-1.125 1.215-1.995 1.215-1.243 0-2.25-1.007-2.25-2.25v0c0-1.243 1.007-2.25 2.25-2.25v0zM14.25 6c1.243 0 2.25 1.007 2.25 2.25v0c0 1.243-1.007 2.25-2.25 2.25v0c-0.87 0-1.62-0.495-1.995-1.215 0.645-0.832 0.96-1.898 0.847-2.97 0.338-0.202 0.728-0.315 1.147-0.315zM4.125 13.688c0-1.553 2.183-2.813 4.875-2.813s4.875 1.26 4.875 2.813v1.313h-9.75v-1.313zM0 15v-1.125c0-1.043 1.417-1.92 3.338-2.175-0.442 0.51-0.712 1.215-0.712 1.988v1.313h-2.625zM18 15h-2.625v-1.313c0-0.773-0.27-1.477-0.712-1.988 1.92 0.255 3.338 1.133 3.338 2.175v1.125z"></path>
</svg>
