<!-- Generated by IcoMoon.io -->
<svg version="1.1" xmlns="http://www.w3.org/2000/svg" width="18" height="18" viewBox="0 0 18 18">
<title>account-cog</title>
<path d="M7.5 3c-1.657 0-3 1.343-3 3v0c0 1.657 1.343 3 3 3v0c1.657 0 3-1.343 3-3v0c0-1.657-1.343-3-3-3v0zM12.75 9c-0.098 0-0.18 0.068-0.195 0.158l-0.143 0.99c-0.225 0.098-0.442 0.217-0.638 0.352l-0.93-0.375c-0.082 0-0.18 0-0.233 0.098l-0.75 1.297c-0.045 0.082-0.030 0.18 0.045 0.24l0.795 0.615c-0.015 0.127-0.022 0.248-0.022 0.375s0.008 0.248 0.022 0.375l-0.795 0.615c-0.068 0.060-0.090 0.158-0.045 0.24l0.75 1.297c0.045 0.098 0.143 0.098 0.233 0.098l0.93-0.375c0.195 0.135 0.405 0.262 0.638 0.352l0.143 0.99c0.015 0.090 0.090 0.158 0.195 0.158h1.5c0.082 0 0.165-0.068 0.18-0.158l0.143-0.99c0.225-0.098 0.428-0.217 0.63-0.352l0.922 0.375c0.098 0 0.195 0 0.248-0.098l0.75-1.297c0.045-0.082 0.022-0.18-0.045-0.24l-0.802-0.615c0.015-0.127 0.030-0.248 0.030-0.375s-0.008-0.248-0.030-0.375l0.795-0.615c0.067-0.060 0.090-0.158 0.045-0.24l-0.75-1.297c-0.045-0.098-0.143-0.098-0.24-0.098l-0.922 0.375c-0.203-0.135-0.405-0.262-0.638-0.352l-0.143-0.99c-0.008-0.090-0.090-0.158-0.172-0.158h-1.5zM7.5 10.5c-3.315 0-6 1.342-6 3v1.5h7.26c-0.321-0.658-0.509-1.432-0.51-2.25v-0c0.002-0.792 0.178-1.542 0.494-2.215l-0.014 0.032c-0.397-0.045-0.81-0.068-1.23-0.068zM13.5 11.625c0.622 0 1.125 0.503 1.125 1.125s-0.503 1.125-1.125 1.125c-0.63 0-1.125-0.503-1.125-1.125s0.503-1.125 1.125-1.125z"></path>
</svg>
