<!-- Generated by IcoMoon.io -->
<svg version="1.1" xmlns="http://www.w3.org/2000/svg" width="18" height="18" viewBox="0 0 18 18">
<title>account-convert</title>
<path d="M9 0l-0.495 0.022 2.857 2.857 1.013-1.005c2.438 1.178 4.193 3.555 4.463 6.375h1.125c-0.383-4.62-4.245-8.25-8.963-8.25zM9 3c-1.448 0-2.625 1.178-2.625 2.625s1.178 2.625 2.625 2.625c1.448 0 2.625-1.178 2.625-2.625s-1.178-2.625-2.625-2.625zM0.037 9.75c0.383 4.62 4.245 8.25 8.963 8.25l0.495-0.023-2.857-2.857-1.013 1.005c-2.438-1.17-4.193-3.555-4.463-6.375h-1.125zM9 9.75c-2.902 0-5.25 1.178-5.25 2.625v1.125h10.5v-1.125c0-1.448-2.348-2.625-5.25-2.625z"></path>
</svg>
