<!-- Generated by IcoMoon.io -->
<svg version="1.1" xmlns="http://www.w3.org/2000/svg" width="18" height="18" viewBox="0 0 18 18">
<title>attachment</title>
<path d="M5.625 13.5c-2.278 0-4.125-1.847-4.125-4.125v0c0-2.278 1.847-4.125 4.125-4.125v0h7.875c1.657 0 3 1.343 3 3v0c0 1.657-1.343 3-3 3v0h-6.375c-1.036 0-1.875-0.839-1.875-1.875v0c0-1.036 0.839-1.875 1.875-1.875v0h5.625v1.125h-5.625c-0.414 0-0.75 0.336-0.75 0.75v0c0 0.414 0.336 0.75 0.75 0.75v0h6.375c1.036 0 1.875-0.839 1.875-1.875v0c0-1.036-0.839-1.875-1.875-1.875v0h-7.875c-1.657 0-3 1.343-3 3v0c0 1.657 1.343 3 3 3v0h7.125v1.125h-7.125z"></path>
</svg>
