<!-- Generated by IcoMoon.io -->
<svg version="1.1" xmlns="http://www.w3.org/2000/svg" width="18" height="18" viewBox="0 0 18 18">
<title>book-open-variant</title>
<path d="M15.75 3.75c-0.832-0.262-1.747-0.375-2.625-0.375-1.463 0-3.038 0.3-4.125 1.125-1.088-0.825-2.663-1.125-4.125-1.125s-3.038 0.3-4.125 1.125v10.988c0 0.188 0.188 0.375 0.375 0.375 0.075 0 0.113-0.037 0.188-0.037 1.013-0.487 2.475-0.825 3.563-0.825 1.462 0 3.037 0.3 4.125 1.125 1.013-0.638 2.85-1.125 4.125-1.125 1.237 0 2.512 0.225 3.563 0.787 0.075 0.037 0.112 0.037 0.188 0.037 0.188 0 0.375-0.188 0.375-0.375v-10.95c-0.45-0.338-0.937-0.563-1.5-0.75zM15.75 13.875c-0.825-0.262-1.725-0.375-2.625-0.375-1.275 0-3.113 0.487-4.125 1.125v-8.625c1.013-0.638 2.85-1.125 4.125-1.125 0.9 0 1.8 0.112 2.625 0.375v8.625z"></path>
</svg>
