<!-- Generated by IcoMoon.io -->
<svg version="1.1" xmlns="http://www.w3.org/2000/svg" width="18" height="18" viewBox="0 0 18 18">
<title>calendar-month</title>
<path d="M6.75 7.5v1.5h-1.5v-1.5h1.5zM9.75 7.5v1.5h-1.5v-1.5h1.5zM12.75 7.5v1.5h-1.5v-1.5h1.5zM14.25 2.25c0.828 0 1.5 0.672 1.5 1.5v0 10.5c0 0.828-0.672 1.5-1.5 1.5v0h-10.5c-0.833 0-1.5-0.675-1.5-1.5v-10.5c0-0.828 0.672-1.5 1.5-1.5v0h0.75v-1.5h1.5v1.5h6v-1.5h1.5v1.5h0.75zM14.25 14.25v-8.25h-10.5v8.25h10.5zM6.75 10.5v1.5h-1.5v-1.5h1.5zM9.75 10.5v1.5h-1.5v-1.5h1.5zM12.75 10.5v1.5h-1.5v-1.5h1.5z"></path>
</svg>
