<!-- Generated by IcoMoon.io -->
<svg version="1.1" xmlns="http://www.w3.org/2000/svg" width="18" height="18" viewBox="0 0 18 18">
<title>cancel</title>
<path d="M9 1.5c4.142 0 7.5 3.358 7.5 7.5v0c0 4.142-3.358 7.5-7.5 7.5v0c-4.142 0-7.5-3.358-7.5-7.5v0c0-4.142 3.358-7.5 7.5-7.5v0zM9 3c-3.314 0-6 2.686-6 6v0c0 1.387 0.473 2.663 1.26 3.682l8.423-8.423c-1.020-0.788-2.295-1.26-3.682-1.26zM9 15c3.314 0 6-2.686 6-6v0c0-1.387-0.473-2.663-1.26-3.682l-8.423 8.423c1.020 0.787 2.295 1.26 3.682 1.26z"></path>
</svg>
