<!-- Generated by IcoMoon.io -->
<svg version="1.1" xmlns="http://www.w3.org/2000/svg" width="18" height="18" viewBox="0 0 18 18">
<title>card-account-details</title>
<path d="M1.5 2.25h15c0.788 0 1.5 0.712 1.5 1.5v10.5c0 0.787-0.712 1.5-1.5 1.5h-15c-0.787 0-1.5-0.712-1.5-1.5v-10.5c0-0.788 0.712-1.5 1.5-1.5zM10.5 4.5v0.75h6v-0.75h-6zM10.5 6v0.75h6v-0.75h-6zM10.5 7.5v0.75h5.25v-0.75h-5.25zM6 10.432c-1.5 0-4.5 0.818-4.5 2.318v0.75h9v-0.75c0-1.5-3-2.318-4.5-2.318zM6 4.5c-1.243 0-2.25 1.007-2.25 2.25v0c0 1.243 1.007 2.25 2.25 2.25v0c1.243 0 2.25-1.007 2.25-2.25v0c0-1.243-1.007-2.25-2.25-2.25v0z"></path>
</svg>
