<!-- Generated by IcoMoon.io -->
<svg version="1.1" xmlns="http://www.w3.org/2000/svg" width="18" height="18" viewBox="0 0 18 18">
<title>chart-arc</title>
<path d="M12.135 14.7l-1.508-2.61c0.735-0.54 1.245-1.38 1.35-2.34h3.023c-0.127 2.070-1.237 3.87-2.865 4.95zM9.75 5.273v-3.023c3.225 0.195 5.805 2.775 6 6h-3.023c-0.172-1.567-1.41-2.805-2.978-2.978zM5.25 9.375c0 0.48 0.098 0.937 0.285 1.35l-2.61 1.508c-0.435-0.863-0.675-1.83-0.675-2.858 0-3.397 2.655-6.173 6-6.375v3.023c-1.688 0.188-3 1.612-3 3.352zM8.625 15.75c-2.227 0-4.185-1.125-5.325-2.865l2.61-1.508c0.615 0.833 1.59 1.373 2.715 1.373 0.48 0 0.937-0.098 1.35-0.285l1.508 2.61c-0.863 0.435-1.83 0.675-2.857 0.675z"></path>
</svg>
