<!-- Generated by IcoMoon.io -->
<svg version="1.1" xmlns="http://www.w3.org/2000/svg" width="18" height="18" viewBox="0 0 18 18">
<title>chart-timeline-variant</title>
<path d="M2.25 10.5l0.375 0.053 3.428-3.428c-0.135-0.487-0.008-1.043 0.39-1.432 0.585-0.593 1.53-0.593 2.115 0 0.397 0.39 0.525 0.945 0.39 1.432l1.927 1.927 0.375-0.053c0.135 0 0.262 0 0.375 0.053l2.678-2.677c-0.053-0.112-0.053-0.24-0.053-0.375 0-0.828 0.672-1.5 1.5-1.5v0c0.828 0 1.5 0.672 1.5 1.5v0c0 0.828-0.672 1.5-1.5 1.5v0c-0.135 0-0.262 0-0.375-0.053l-2.678 2.677c0.053 0.112 0.053 0.24 0.053 0.375 0 0.828-0.672 1.5-1.5 1.5v0c-0.828 0-1.5-0.672-1.5-1.5v0l0.053-0.375-1.927-1.927c-0.24 0.053-0.51 0.053-0.75 0l-3.428 3.428 0.053 0.375c0 0.828-0.672 1.5-1.5 1.5v0c-0.828 0-1.5-0.672-1.5-1.5v0c0-0.828 0.672-1.5 1.5-1.5v0z"></path>
</svg>
