<!-- Generated by IcoMoon.io -->
<svg version="1.1" xmlns="http://www.w3.org/2000/svg" width="18" height="18" viewBox="0 0 18 18">
<title>chart-donut-variant</title>
<path d="M9.75 1.538c3.788 0.375 6.75 3.578 6.75 7.462 0 1.088-0.24 2.123-0.66 3.052l-1.965-1.148c0.24-0.593 0.375-1.23 0.375-1.905 0-2.647-1.958-4.823-4.5-5.19v-2.272zM9 14.25c1.657 0 3.127-0.75 4.087-1.965l1.95 1.147c-1.365 1.86-3.563 3.068-6.038 3.068-4.148 0-7.5-3.375-7.5-7.5 0-3.892 2.955-7.087 6.75-7.462v2.272c-2.542 0.368-4.5 2.542-4.5 5.19 0 2.899 2.351 5.25 5.25 5.25v0zM9 4.5c2.485 0 4.5 2.015 4.5 4.5v0c0 2.228-1.62 4.080-3.75 4.44v-2.317c0.877-0.307 1.5-1.14 1.5-2.123 0-1.243-1.007-2.25-2.25-2.25v0l-0.413 0.037-1.155-2.003c0.487-0.188 1.013-0.285 1.567-0.285zM4.5 9c0-1.395 0.638-2.625 1.635-3.465l1.155 2.003c-0.338 0.39-0.54 0.908-0.54 1.462 0 0.982 0.622 1.815 1.5 2.123v2.317c-2.13-0.36-3.75-2.213-3.75-4.44z"></path>
</svg>
