<!-- Generated by IcoMoon.io -->
<svg version="1.1" xmlns="http://www.w3.org/2000/svg" width="18" height="18" viewBox="0 0 18 18">
<title>chart-scatter-plot</title>
<path d="M1.5 1.5h1.5v13.5h13.5v1.5h-15v-15zM6.75 7.5c1.243 0 2.25 1.007 2.25 2.25v0c0 1.243-1.007 2.25-2.25 2.25v0c-1.243 0-2.25-1.007-2.25-2.25v0c0-1.243 1.007-2.25 2.25-2.25v0zM9.75 1.5c1.243 0 2.25 1.007 2.25 2.25v0c0 1.243-1.007 2.25-2.25 2.25v0c-1.243 0-2.25-1.007-2.25-2.25v0c0-1.243 1.007-2.25 2.25-2.25v0zM13.5 9c1.243 0 2.25 1.007 2.25 2.25v0c0 1.243-1.007 2.25-2.25 2.25v0c-1.243 0-2.25-1.007-2.25-2.25v0c0-1.243 1.007-2.25 2.25-2.25v0z"></path>
</svg>
