<!-- Generated by IcoMoon.io -->
<svg version="1.1" xmlns="http://www.w3.org/2000/svg" width="18" height="18" viewBox="0 0 18 18">
<title>chart-donut</title>
<path d="M9.75 1.538v2.273c2.542 0.368 4.5 2.542 4.5 5.19 0 0.675-0.135 1.313-0.375 1.905l1.965 1.148c0.42-0.93 0.66-1.965 0.66-3.052 0-3.885-2.962-7.088-6.75-7.462zM9 14.25c-2.899 0-5.25-2.351-5.25-5.25v0c0-2.647 1.958-4.823 4.5-5.19v-2.272c-3.795 0.375-6.75 3.57-6.75 7.462 0 4.142 3.358 7.5 7.5 7.5v0c2.475 0 4.672-1.207 6.038-3.068l-1.95-1.147c-0.96 1.215-2.43 1.965-4.087 1.965z"></path>
</svg>
