<!-- Generated by IcoMoon.io -->
<svg version="1.1" xmlns="http://www.w3.org/2000/svg" width="18" height="18" viewBox="0 0 18 18">
<title>circle-double</title>
<path d="M9 1.5c-4.142 0-7.5 3.358-7.5 7.5v0c0 4.142 3.358 7.5 7.5 7.5v0c4.142 0 7.5-3.358 7.5-7.5v0c0-4.142-3.358-7.5-7.5-7.5v0zM9 3c3.314 0 6 2.686 6 6v0c0 3.314-2.686 6-6 6v0c-3.314 0-6-2.686-6-6v0c0-3.314 2.686-6 6-6v0zM9 4.5c-2.485 0-4.5 2.015-4.5 4.5v0c0 2.485 2.015 4.5 4.5 4.5v0c2.485 0 4.5-2.015 4.5-4.5v0c0-2.485-2.015-4.5-4.5-4.5v0zM9 6c1.657 0 3 1.343 3 3v0c0 1.657-1.343 3-3 3v0c-1.657 0-3-1.343-3-3v0c0-1.657 1.343-3 3-3v0z"></path>
</svg>
