<!-- Generated by IcoMoon.io -->
<svg version="1.1" xmlns="http://www.w3.org/2000/svg" width="18" height="18" viewBox="0 0 18 18">
<title>clipboard-text-outline</title>
<path d="M14.25 2.25h-3.135c-0.428-1.17-1.718-1.77-2.865-1.35-0.645 0.225-1.125 0.72-1.365 1.35h-3.135c-0.828 0-1.5 0.672-1.5 1.5v0 10.5c0 0.828 0.672 1.5 1.5 1.5v0h10.5c0.828 0 1.5-0.672 1.5-1.5v0-10.5c0-0.828-0.672-1.5-1.5-1.5v0zM9 2.25c0.414 0 0.75 0.336 0.75 0.75v0c0 0.414-0.336 0.75-0.75 0.75v0c-0.414 0-0.75-0.336-0.75-0.75v0c0-0.414 0.336-0.75 0.75-0.75v0zM5.25 5.25h7.5v-1.5h1.5v10.5h-10.5v-10.5h1.5v1.5zM12.75 8.25h-7.5v-1.5h7.5v1.5zM11.25 11.25h-6v-1.5h6v1.5z"></path>
</svg>
