<!-- Generated by IcoMoon.io -->
<svg version="1.1" xmlns="http://www.w3.org/2000/svg" width="18" height="18" viewBox="0 0 18 18">
<title>clock-end</title>
<path d="M9 0.75c-2.895 0-5.25 2.355-5.25 5.25 0 2.899 2.351 5.25 5.25 5.25v0c2.895 0 5.25-2.348 5.25-5.25 0-2.895-2.355-5.25-5.25-5.25zM9 2.363c2.002 0 3.637 1.628 3.637 3.637s-1.635 3.637-3.637 3.637c-2.009 0-3.637-1.629-3.637-3.637v0c0-2.009 1.629-3.637 3.637-3.637v0zM8.25 3.75v2.768l2.393 1.38 0.563-0.975-1.83-1.058v-2.115zM11.25 12v2.25h-9v1.5h9v2.25l3-3zM14.25 15v3h1.5v-6h-1.5z"></path>
</svg>
