<!-- Generated by IcoMoon.io -->
<svg version="1.1" xmlns="http://www.w3.org/2000/svg" width="18" height="18" viewBox="0 0 18 18">
<title>clock-fast</title>
<path d="M11.25 3c3.314 0 6 2.686 6 6v0c0 3.314-2.686 6-6 6v0c-3.314 0-6-2.686-6-6v0c0-3.314 2.686-6 6-6v0zM11.25 4.5c-2.485 0-4.5 2.015-4.5 4.5v0c0 2.485 2.015 4.5 4.5 4.5v0c2.485 0 4.5-2.015 4.5-4.5v0c0-2.485-2.015-4.5-4.5-4.5v0zM10.5 6h1.125v2.835l1.747 1.747-0.795 0.795-2.078-2.078v-3.3zM1.5 13.5c-0.414 0-0.75-0.336-0.75-0.75v0c0-0.414 0.336-0.75 0.75-0.75v0h2.872c0.233 0.532 0.532 1.035 0.878 1.5h-3.75zM2.25 9.75c-0.414 0-0.75-0.336-0.75-0.75v0c0-0.414 0.336-0.75 0.75-0.75v0h1.538l-0.037 0.75 0.037 0.75h-1.538zM3 6c-0.414 0-0.75-0.336-0.75-0.75v0c0-0.414 0.336-0.75 0.75-0.75v0h2.25c-0.345 0.465-0.645 0.968-0.878 1.5h-1.372z"></path>
</svg>
