<!-- Generated by IcoMoon.io -->
<svg version="1.1" xmlns="http://www.w3.org/2000/svg" width="18" height="18" viewBox="0 0 18 18">
<title>cloud-lock</title>
<path d="M16.5 12.75c0.375 0 0.75 0.375 0.75 0.75v3c0 0.375-0.375 0.75-0.75 0.75h-3.75c-0.375 0-0.75-0.375-0.75-0.75v-3c0-0.375 0.375-0.75 0.75-0.75v-1.125c0-1.050 0.825-1.875 1.875-1.875s1.875 0.825 1.875 1.875v1.125zM15.75 12.75v-1.125c0-0.6-0.525-1.125-1.125-1.125s-1.125 0.525-1.125 1.125v1.125h2.25zM14.52 6.772c1.943 0.143 3.48 1.747 3.48 3.727l-0.045 0.577c-0.262-1.605-1.65-2.827-3.33-2.827-1.875 0-3.375 1.5-3.375 3.375v0.195c-0.458 0.413-0.75 1.013-0.75 1.68v0.75h-6c-2.483 0-4.5-2.017-4.5-4.5 0-2.325 1.755-4.23 4.013-4.47 0.937-1.8 2.82-3.030 4.987-3.030 2.73 0 5.003 1.943 5.52 4.522z"></path>
</svg>
