<!-- Generated by IcoMoon.io -->
<svg version="1.1" xmlns="http://www.w3.org/2000/svg" width="18" height="18" viewBox="0 0 18 18">
<title>cloud-outline</title>
<path d="M14.25 13.5h-9.75c-1.657 0-3-1.343-3-3v0c0-1.657 1.343-3 3-3v0h0.532c0.495-1.733 2.093-3 3.968-3 2.278 0 4.125 1.847 4.125 4.125v0 0.375h1.125c1.243 0 2.25 1.007 2.25 2.25v0c0 1.243-1.007 2.25-2.25 2.25v0zM14.513 7.523c-0.51-2.58-2.782-4.522-5.513-4.522-2.168 0-4.050 1.23-4.987 3.023-2.258 0.247-4.013 2.152-4.013 4.478 0 2.485 2.015 4.5 4.5 4.5v0h9.75c2.071 0 3.75-1.679 3.75-3.75v0c0-1.98-1.538-3.585-3.487-3.727z"></path>
</svg>
