<!-- Generated by IcoMoon.io -->
<svg version="1.1" xmlns="http://www.w3.org/2000/svg" width="18" height="18" viewBox="0 0 18 18">
<title>cogs</title>
<path d="M11.925 13.838c1.013 0 1.837-0.825 1.837-1.837s-0.825-1.837-1.837-1.837c-1.020 0-1.837 0.825-1.837 1.837s0.818 1.837 1.837 1.837zM15.825 12.51l1.11 0.87c0.098 0.082 0.127 0.217 0.060 0.338l-1.050 1.815c-0.068 0.112-0.195 0.158-0.323 0.112l-1.305-0.525c-0.27 0.21-0.57 0.383-0.885 0.518l-0.202 1.387c-0.015 0.127-0.127 0.225-0.255 0.225h-2.1c-0.135 0-0.24-0.098-0.262-0.225l-0.195-1.387c-0.323-0.135-0.615-0.307-0.885-0.518l-1.313 0.525c-0.112 0.045-0.255 0-0.315-0.112l-1.050-1.815c-0.067-0.12-0.037-0.255 0.060-0.338l1.11-0.87-0.037-0.51 0.037-0.518-1.11-0.863c-0.098-0.082-0.127-0.225-0.060-0.338l1.050-1.815c0.060-0.12 0.202-0.165 0.315-0.12l1.313 0.532c0.27-0.21 0.563-0.39 0.885-0.518l0.195-1.395c0.022-0.12 0.127-0.217 0.262-0.217h2.1c0.127 0 0.24 0.098 0.255 0.217l0.202 1.395c0.315 0.127 0.615 0.307 0.885 0.518l1.305-0.532c0.127-0.045 0.255 0 0.323 0.12l1.050 1.815c0.067 0.112 0.037 0.255-0.060 0.338l-1.11 0.863 0.037 0.518-0.037 0.51zM5.018 6.053c0.652 0 1.178-0.525 1.178-1.178s-0.525-1.185-1.178-1.185c-0.654 0-1.185 0.531-1.185 1.185v0c0 0.652 0.532 1.178 1.185 1.178zM7.523 5.205l0.728 0.555c0.053 0.053 0.067 0.143 0.022 0.217l-0.675 1.17c-0.037 0.075-0.127 0.105-0.202 0.075l-0.84-0.338-0.555 0.33-0.143 0.892c-0.015 0.082-0.082 0.143-0.165 0.143h-1.35c-0.090 0-0.157-0.060-0.172-0.143l-0.12-0.892-0.57-0.33-0.855 0.337c-0.067 0.030-0.15 0-0.195-0.075l-0.675-1.17c-0.045-0.075-0.023-0.165 0.037-0.217l0.712-0.555-0.022-0.33 0.022-0.33-0.712-0.555c-0.060-0.053-0.082-0.143-0.037-0.217l0.675-1.17c0.045-0.075 0.127-0.105 0.195-0.075l0.847 0.337 0.577-0.33 0.12-0.892c0.015-0.082 0.082-0.143 0.172-0.143h1.35c0.082 0 0.15 0.060 0.165 0.143l0.143 0.892 0.555 0.33 0.84-0.337c0.075-0.030 0.165 0 0.202 0.075l0.675 1.17c0.045 0.075 0.030 0.165-0.022 0.217l-0.728 0.555 0.022 0.33-0.022 0.33z"></path>
</svg>
