<!-- Generated by IcoMoon.io -->
<svg version="1.1" xmlns="http://www.w3.org/2000/svg" width="18" height="18" viewBox="0 0 18 18">
<title>content-cut</title>
<path d="M14.25 2.25l-4.5 4.5 1.5 1.5 5.25-5.25v-0.75zM9 9.375c-0.207 0-0.375-0.168-0.375-0.375v0c0-0.207 0.168-0.375 0.375-0.375v0c0.207 0 0.375 0.168 0.375 0.375v0c0 0.207-0.168 0.375-0.375 0.375v0zM4.5 15c-0.828 0-1.5-0.672-1.5-1.5v0c0-0.832 0.675-1.5 1.5-1.5 0.828 0 1.5 0.672 1.5 1.5v0c0 0.832-0.675 1.5-1.5 1.5zM4.5 6c-0.828 0-1.5-0.672-1.5-1.5v0c0-0.833 0.675-1.5 1.5-1.5 0.828 0 1.5 0.672 1.5 1.5v0c0 0.833-0.675 1.5-1.5 1.5zM7.23 5.73c0.172-0.375 0.27-0.788 0.27-1.23 0-1.657-1.343-3-3-3v0c-1.657 0-3 1.343-3 3v0c0 1.657 1.343 3 3 3v0c0.442 0 0.855-0.098 1.23-0.27l1.77 1.77-1.77 1.77c-0.375-0.172-0.788-0.27-1.23-0.27-1.657 0-3 1.343-3 3v0c0 1.657 1.343 3 3 3v0c1.657 0 3-1.343 3-3v0c0-0.442-0.098-0.855-0.27-1.23l1.77-1.77 5.25 5.25h2.25v-0.75l-9.27-9.27z"></path>
</svg>
