<!-- Generated by IcoMoon.io -->
<svg version="1.1" xmlns="http://www.w3.org/2000/svg" width="18" height="18" viewBox="0 0 18 18">
<title>content-paste</title>
<path d="M14.25 15h-10.5v-12h1.5v2.25h7.5v-2.25h1.5zM9 1.5c0.414 0 0.75 0.336 0.75 0.75v0c0 0.414-0.336 0.75-0.75 0.75v0c-0.414 0-0.75-0.336-0.75-0.75v0c0-0.414 0.336-0.75 0.75-0.75v0zM14.25 1.5h-3.135c-0.315-0.87-1.14-1.5-2.115-1.5s-1.8 0.63-2.115 1.5h-3.135c-0.828 0-1.5 0.672-1.5 1.5v0 12c0 0.828 0.672 1.5 1.5 1.5v0h10.5c0.828 0 1.5-0.672 1.5-1.5v0-12c0-0.828-0.672-1.5-1.5-1.5v0z"></path>
</svg>
