<!-- Generated by IcoMoon.io -->
<svg version="1.1" xmlns="http://www.w3.org/2000/svg" width="18" height="18" viewBox="0 0 18 18">
<title>crop-rotate</title>
<path d="M5.603 16.125c-2.453-1.178-4.208-3.555-4.478-6.375h-1.125c0.375 4.62 4.245 8.25 8.963 8.25 0.172 0 0.33 0 0.495-0.022l-2.857-2.865-0.998 1.013zM9.037 0c-0.172 0-0.33 0-0.495 0.030l2.857 2.857 0.998-1.012c2.453 1.178 4.208 3.555 4.478 6.375h1.125c-0.375-4.62-4.245-8.25-8.963-8.25zM12 10.5h1.5v-4.5c0-0.833-0.675-1.5-1.5-1.5h-4.5v1.5h4.5v4.5zM6 12v-9h-1.5v1.5h-1.5v1.5h1.5v6c0 0.828 0.672 1.5 1.5 1.5v0h6v1.5h1.5v-1.5h1.5v-1.5h-9z"></path>
</svg>
