<!-- Generated by IcoMoon.io -->
<svg version="1.1" xmlns="http://www.w3.org/2000/svg" width="18" height="18" viewBox="0 0 18 18">
<title>database-import</title>
<path d="M9 2.25c-2.557 0-4.733 0.802-5.595 1.927l3.938 3.938c0.532 0.082 1.072 0.135 1.657 0.135 3.315 0 6-1.342 6-3s-2.685-3-6-3zM2.94 5.31l-1.065 1.065 1.875 1.875h-3.75v1.5h3.75l-1.875 1.875 1.065 1.065 3.69-3.69zM15 6.75c0 1.657-2.685 3-6 3-0.495 0-0.975-0.037-1.432-0.098l-1.853 1.853c0.945 0.307 2.070 0.495 3.285 0.495 3.315 0 6-1.342 6-3zM15 10.5c0 1.657-2.685 3-6 3-1.71 0-3.248-0.375-4.342-0.937l-1.26 1.26c0.863 1.125 3.045 1.927 5.602 1.927 3.315 0 6-1.342 6-3z"></path>
</svg>
