<!-- Generated by IcoMoon.io -->
<svg version="1.1" xmlns="http://www.w3.org/2000/svg" width="18" height="18" viewBox="0 0 18 18">
<title>do-not-disturb-off</title>
<path d="M12.75 8.25v1.5h-1.095l3.51 3.51c0.84-1.207 1.335-2.677 1.335-4.26 0-4.142-3.358-7.5-7.5-7.5v0c-1.583 0-3.052 0.495-4.26 1.335l5.415 5.415h2.595zM1.702 1.702l-0.953 0.953 2.085 2.085c-0.84 1.207-1.335 2.677-1.335 4.26 0 4.142 3.358 7.5 7.5 7.5v0c1.583 0 3.052-0.495 4.26-1.335l2.085 2.085 0.953-0.953-14.595-14.595zM5.25 9.75v-1.5h1.095l1.5 1.5h-2.595z"></path>
</svg>
