<!-- Generated by IcoMoon.io -->
<svg version="1.1" xmlns="http://www.w3.org/2000/svg" width="18" height="18" viewBox="0 0 18 18">
<title>earth</title>
<path d="M13.425 13.042c-0.195-0.6-0.757-1.043-1.425-1.043h-0.75v-2.25c0-0.414-0.336-0.75-0.75-0.75v0h-4.5v-1.5h1.5c0.414 0 0.75-0.336 0.75-0.75v0-1.5h1.5c0.828 0 1.5-0.672 1.5-1.5v0-0.307c2.197 0.885 3.75 3.038 3.75 5.558 0 1.56-0.6 2.978-1.575 4.042zM8.25 14.948c-2.962-0.368-5.25-2.888-5.25-5.948 0-0.465 0.060-0.915 0.157-1.342l3.592 3.592v0.75c0 0.828 0.672 1.5 1.5 1.5v0zM9 1.5c-4.142 0-7.5 3.358-7.5 7.5v0c0 4.142 3.358 7.5 7.5 7.5v0c4.142 0 7.5-3.358 7.5-7.5v0c0-4.142-3.358-7.5-7.5-7.5v0z"></path>
</svg>
