<!-- Generated by IcoMoon.io -->
<svg version="1.1" xmlns="http://www.w3.org/2000/svg" width="18" height="18" viewBox="0 0 18 18">
<title>emoticon-sad</title>
<path d="M9 1.5c-4.142 0-7.5 3.358-7.5 7.5v0c0 4.142 3.358 7.5 7.5 7.5v0c4.142 0 7.5-3.358 7.5-7.5v0c0-4.142-3.358-7.5-7.5-7.5v0zM5.25 7.125c0-0.6 0.525-1.125 1.125-1.125s1.125 0.525 1.125 1.125c0 0.6-0.525 1.125-1.125 1.125s-1.125-0.525-1.125-1.125zM11.078 12.923c-0.338-0.548-1.14-0.922-2.078-0.922s-1.74 0.375-2.078 0.922l-1.065-1.065c0.675-0.818 1.83-1.358 3.142-1.358s2.467 0.54 3.142 1.358l-1.065 1.065zM11.625 8.25c-0.6 0-1.125-0.525-1.125-1.125s0.525-1.125 1.125-1.125c0.6 0 1.125 0.525 1.125 1.125s-0.525 1.125-1.125 1.125z"></path>
</svg>
