<!-- Generated by IcoMoon.io -->
<svg version="1.1" xmlns="http://www.w3.org/2000/svg" width="18" height="18" viewBox="0 0 18 18">
<title>eye-off</title>
<path d="M8.873 6.75l2.377 2.37c0-0.037 0-0.082 0-0.12 0-1.243-1.007-2.25-2.25-2.25v0c-0.045 0-0.082 0-0.127 0zM5.647 7.35l1.162 1.162c-0.037 0.158-0.060 0.315-0.060 0.487 0 1.243 1.007 2.25 2.25 2.25v0c0.165 0 0.33-0.022 0.487-0.060l1.162 1.162c-0.503 0.248-1.057 0.397-1.65 0.397-2.071 0-3.75-1.679-3.75-3.75v0c0-0.593 0.15-1.147 0.397-1.65zM1.5 3.203l2.048 2.048c-1.238 0.975-2.213 2.25-2.798 3.75 1.297 3.293 4.5 5.625 8.25 5.625 1.162 0 2.273-0.225 3.285-0.63l0.323 0.315 2.19 2.19 0.953-0.953-13.297-13.297zM9 5.25c2.071 0 3.75 1.679 3.75 3.75v0c0 0.48-0.098 0.945-0.27 1.365l2.197 2.197c1.125-0.937 2.025-2.168 2.573-3.563-1.297-3.293-4.5-5.625-8.25-5.625-1.050 0-2.055 0.188-3 0.525l1.628 1.612c0.428-0.165 0.885-0.262 1.372-0.262z"></path>
</svg>
