<!-- Generated by IcoMoon.io -->
<svg version="1.1" xmlns="http://www.w3.org/2000/svg" width="18" height="18" viewBox="0 0 18 18">
<title>eye</title>
<path d="M9 6.75c-1.243 0-2.25 1.007-2.25 2.25v0c0 1.243 1.007 2.25 2.25 2.25v0c1.243 0 2.25-1.007 2.25-2.25v0c0-1.243-1.007-2.25-2.25-2.25v0zM9 12.75c-2.071 0-3.75-1.679-3.75-3.75v0c0-2.071 1.679-3.75 3.75-3.75v0c2.071 0 3.75 1.679 3.75 3.75v0c0 2.071-1.679 3.75-3.75 3.75v0zM9 3.375c-3.75 0-6.952 2.332-8.25 5.625 1.297 3.293 4.5 5.625 8.25 5.625s6.953-2.332 8.25-5.625c-1.297-3.293-4.5-5.625-8.25-5.625z"></path>
</svg>
