<!-- Generated by IcoMoon.io -->
<svg version="1.1" xmlns="http://www.w3.org/2000/svg" width="18" height="18" viewBox="0 0 18 18">
<title>fast-forward-30</title>
<path d="M8.625 2.25c-3.488 0-6.435 2.272-7.478 5.415l1.778 0.585c0.788-2.393 3.045-4.125 5.7-4.125 1.47 0 2.798 0.54 3.84 1.41l-1.965 1.965h5.25v-5.25l-1.95 1.95c-1.387-1.2-3.187-1.95-5.175-1.95zM14.25 10.5v4.5c0 0.833-0.667 1.5-1.5 1.5h-1.5c-0.828 0-1.5-0.672-1.5-1.5v0-4.5c0-0.828 0.672-1.5 1.5-1.5v0h1.5c0.833 0 1.5 0.675 1.5 1.5zM11.25 10.5v4.5h1.5v-4.5h-1.5zM8.25 15c0 0.833-0.675 1.5-1.5 1.5h-3v-1.5h3v-1.5h-1.5v-1.5h1.5v-1.5h-3v-1.5h3c0.828 0 1.5 0.672 1.5 1.5v0 1.125c0 0.621-0.504 1.125-1.125 1.125v0c0.621 0 1.125 0.504 1.125 1.125v0 1.125z"></path>
</svg>
