<!-- Generated by IcoMoon.io -->
<svg version="1.1" xmlns="http://www.w3.org/2000/svg" width="18" height="18" viewBox="0 0 18 18">
<title>filter-menu</title>
<path d="M8.25 8.25l4.32-5.535c0.099-0.126 0.158-0.286 0.158-0.461 0-0.238-0.111-0.451-0.284-0.588l-0.002-0.001c-0.12-0.097-0.274-0.159-0.441-0.165l-0.001-0h-10.5c-0.177 0.001-0.339 0.063-0.466 0.166l0.001-0.001c-0.175 0.139-0.286 0.351-0.286 0.589 0 0.175 0.060 0.335 0.16 0.463l-0.001-0.002 4.342 5.535v4.402c-0.003 0.027-0.005 0.058-0.005 0.089 0 0.209 0.085 0.397 0.223 0.533l1.5 1.5c0.136 0.135 0.322 0.218 0.529 0.218s0.393-0.083 0.529-0.218l-0 0c0.142-0.137 0.23-0.328 0.23-0.54 0-0.029-0.002-0.058-0.005-0.086l0 0.003v-5.903zM9.75 12l3.75 3.75 3.75-3.75z"></path>
</svg>
