<!-- Generated by IcoMoon.io -->
<svg version="1.1" xmlns="http://www.w3.org/2000/svg" width="18" height="18" viewBox="0 0 18 18">
<title>flask-empty-outline</title>
<path d="M3.75 14.25c0 0.414 0.336 0.75 0.75 0.75v0h9c0.414 0 0.75-0.336 0.75-0.75v0c0-0.158-0.053-0.307-0.135-0.428l-4.365-7.56v-3.262h-1.5v3.262l-4.365 7.56c-0.082 0.12-0.135 0.27-0.135 0.428zM4.5 16.5c-1.243 0-2.25-1.007-2.25-2.25v0c0-0.45 0.135-0.87 0.375-1.223l4.125-7.17v-1.358c-0.414 0-0.75-0.336-0.75-0.75v0-0.75c0-0.828 0.672-1.5 1.5-1.5v0h3c0.828 0 1.5 0.672 1.5 1.5v0 0.75c0 0.414-0.336 0.75-0.75 0.75v0 1.358l4.125 7.17c0.24 0.352 0.375 0.773 0.375 1.223 0 1.243-1.007 2.25-2.25 2.25v0h-9z"></path>
</svg>
