<!-- Generated by IcoMoon.io -->
<svg version="1.1" xmlns="http://www.w3.org/2000/svg" width="18" height="18" viewBox="0 0 18 18">
<title>flip-to-front</title>
<path d="M5.25 15.75h1.5v-1.5h-1.5zM8.25 15.75h1.5v-1.5h-1.5zM14.25 11.25h-7.5v-7.5h7.5zM14.25 2.25h-7.5c-0.833 0-1.5 0.667-1.5 1.5v7.5c0 0.828 0.672 1.5 1.5 1.5v0h7.5c0.828 0 1.5-0.672 1.5-1.5v0-7.5c0-0.833-0.675-1.5-1.5-1.5zM11.25 15.75h1.5v-1.5h-1.5zM2.25 6.75h1.5v-1.5h-1.5zM3.75 15.75v-1.5h-1.5c0 0.828 0.672 1.5 1.5 1.5v0zM2.25 12.75h1.5v-1.5h-1.5zM2.25 9.75h1.5v-1.5h-1.5v1.5z"></path>
</svg>
