<!-- Generated by IcoMoon.io -->
<svg version="1.1" xmlns="http://www.w3.org/2000/svg" width="18" height="18" viewBox="0 0 18 18">
<title>floppy</title>
<path d="M3.75 2.25c-0.828 0-1.5 0.672-1.5 1.5v0 10.5c0 0.828 0.672 1.5 1.5 1.5v0h10.5c0.828 0 1.5-0.672 1.5-1.5v0-10.125l-1.875-1.875h-1.125v4.5c0 0.414-0.336 0.75-0.75 0.75v0h-6c-0.414 0-0.75-0.336-0.75-0.75v0-4.5h-1.5zM9 3v3.75h2.25v-3.75h-2.25zM5.25 9h7.5c0.414 0 0.75 0.336 0.75 0.75v0 4.5h-9v-4.5c0-0.414 0.336-0.75 0.75-0.75v0z"></path>
</svg>
