<!-- Generated by IcoMoon.io -->
<svg version="1.1" xmlns="http://www.w3.org/2000/svg" width="18" height="18" viewBox="0 0 18 18">
<title>format-bold</title>
<path d="M10.125 11.625h-2.625v-2.25h2.625c0.621 0 1.125 0.504 1.125 1.125v0c0 0.621-0.504 1.125-1.125 1.125v0zM7.5 4.875h2.25c0.621 0 1.125 0.504 1.125 1.125v0c0 0.621-0.504 1.125-1.125 1.125v0h-2.25zM11.7 8.092c0.728-0.51 1.237-1.342 1.237-2.093 0-1.695-1.313-3-3-3h-4.688v10.5h5.28c1.575 0 2.782-1.275 2.782-2.843 0-1.14-0.645-2.115-1.612-2.565z"></path>
</svg>
