<!-- Generated by IcoMoon.io -->
<svg version="1.1" xmlns="http://www.w3.org/2000/svg" width="18" height="18" viewBox="0 0 18 18">
<title>format-color-fill</title>
<path d="M14.25 8.625c0 0-1.5 1.628-1.5 2.625 0 0.828 0.672 1.5 1.5 1.5v0c0.828 0 1.5-0.672 1.5-1.5v0c0-0.998-1.5-2.625-1.5-2.625zM3.907 7.5l3.592-3.592 3.592 3.592zM12.42 6.705l-6.705-6.705-1.058 1.057 1.785 1.785-3.862 3.862c-0.442 0.42-0.442 1.148 0 1.59l4.125 4.125c0.217 0.217 0.51 0.33 0.795 0.33s0.577-0.113 0.795-0.33l4.125-4.125c0.442-0.442 0.442-1.17 0-1.59z"></path>
</svg>
