<!-- Generated by IcoMoon.io -->
<svg version="1.1" xmlns="http://www.w3.org/2000/svg" width="18" height="18" viewBox="0 0 18 18">
<title>git</title>
<path d="M1.95 7.942l4.335-4.343 1.268 1.275c-0.18 0.638 0.112 1.335 0.697 1.673v4.155c-0.45 0.255-0.75 0.742-0.75 1.297 0 0.828 0.672 1.5 1.5 1.5v0c0.828 0 1.5-0.672 1.5-1.5v0c0-0.555-0.3-1.043-0.75-1.297v-3.645l1.552 1.567c-0.053 0.112-0.053 0.24-0.053 0.375 0 0.828 0.672 1.5 1.5 1.5v0c0.828 0 1.5-0.672 1.5-1.5v0c0-0.828-0.672-1.5-1.5-1.5v0c-0.135 0-0.262 0-0.375 0.053l-1.927-1.927c0.195-0.698-0.165-1.462-0.863-1.755-0.323-0.12-0.66-0.15-0.96-0.067l-1.275-1.268 0.593-0.585c0.585-0.593 1.53-0.593 2.115 0l5.993 5.993c0.593 0.585 0.593 1.53 0 2.115l-5.993 5.993c-0.585 0.593-1.53 0.593-2.115 0l-5.993-5.993c-0.593-0.585-0.593-1.53 0-2.115z"></path>
</svg>
