<!-- Generated by IcoMoon.io -->
<svg version="1.1" xmlns="http://www.w3.org/2000/svg" width="18" height="18" viewBox="0 0 18 18">
<title>grid-off</title>
<path d="M0 2.078l0.96-0.953 15.915 15.915-0.953 0.96-1.5-1.5h-11.422c-0.81 0-1.5-0.675-1.5-1.5v-11.422l-1.5-1.5zM7.5 3v2.76l-1.5-1.5v-1.26h-1.26l-1.5-1.5h11.76c0.828 0 1.5 0.672 1.5 1.5v0 11.775l-1.5-1.5v-1.275h-1.26l-1.5-1.5h2.76v-3h-3v2.76l-1.5-1.5v-1.26h-1.26l-1.5-1.5h2.76v-3h-3zM12 3v3h3v-3h-3zM12 15h0.922l-0.922-0.922v0.922zM3 6h0.922l-0.922-0.923v0.923zM7.5 10.5h0.923l-0.923-0.922v0.922zM10.5 15v-2.422l-0.577-0.577h-2.422v3h3zM6 15v-3h-3v3h3zM6 10.5v-2.422l-0.577-0.577h-2.422v3h3z"></path>
</svg>
