<!-- Generated by IcoMoon.io -->
<svg version="1.1" xmlns="http://www.w3.org/2000/svg" width="18" height="18" viewBox="0 0 18 18">
<title>handshake</title>
<path d="M8.25 4.5h2.25l2.467-2.475c0.136-0.137 0.324-0.222 0.532-0.222s0.397 0.085 0.532 0.222l0 0 1.935 1.943c0.135 0.136 0.218 0.322 0.218 0.529s-0.083 0.393-0.218 0.529l0-0-1.718 1.725h-6v1.5c0 0.414-0.336 0.75-0.75 0.75v0c-0.414 0-0.75-0.336-0.75-0.75v0-2.25c0-0.828 0.672-1.5 1.5-1.5v0zM3.75 8.25v3l-1.718 1.718c-0.135 0.136-0.218 0.322-0.218 0.529s0.083 0.393 0.218 0.529l-0-0 1.935 1.943c0.136 0.137 0.324 0.222 0.532 0.222s0.397-0.085 0.532-0.222l3.218-3.218h3c0.414 0 0.75-0.336 0.75-0.75v0-0.75h0.75c0.414 0 0.75-0.336 0.75-0.75v0-0.75h0.75c0.414 0 0.75-0.336 0.75-0.75v0-0.75h-5.25v0.75c0 0.828-0.672 1.5-1.5 1.5v0h-1.5c-0.828 0-1.5-0.672-1.5-1.5v0-2.25z"></path>
</svg>
