<!-- Generated by IcoMoon.io -->
<svg version="1.1" xmlns="http://www.w3.org/2000/svg" width="18" height="18" viewBox="0 0 18 18">
<title>heart-pulse</title>
<path d="M5.625 3c-2.278 0-4.125 1.847-4.125 4.125v0c0 0.375 0.068 0.75 0.165 1.125h3.060l0.953-2.528c0.225-0.6 1.11-0.66 1.395 0l1.553 4.028 0.442-1.065c0.098-0.247 0.36-0.435 0.683-0.435h6.585c0.098-0.375 0.165-0.75 0.165-1.125 0-2.278-1.847-4.125-4.125-4.125v0c-1.395 0-2.625 0.698-3.375 1.755-0.75-1.057-1.98-1.755-3.375-1.755v0zM2.25 9.375c-0.414 0-0.75 0.336-0.75 0.75v0c0 0.414 0.336 0.75 0.75 0.75v0h1.83l4.17 4.125c0.75 0.675 0.75 0.675 1.5 0l4.17-4.125h1.83c0.414 0 0.75-0.336 0.75-0.75v0c0-0.414-0.336-0.75-0.75-0.75v0h-5.7l-0.697 1.725c-0.3 0.757-1.162 0.652-1.44 0.022l-1.538-3.997-0.72 1.747c-0.112 0.285-0.368 0.503-0.705 0.503h-2.7z"></path>
</svg>
