<!-- Generated by IcoMoon.io -->
<svg version="1.1" xmlns="http://www.w3.org/2000/svg" width="18" height="18" viewBox="0 0 18 18">
<title>heart-outline</title>
<path d="M9.075 13.913l-0.075 0.075-0.082-0.075c-3.563-3.232-5.917-5.37-5.917-7.537 0-1.5 1.125-2.625 2.625-2.625 1.155 0 2.28 0.75 2.678 1.77h1.395c0.397-1.020 1.522-1.77 2.678-1.77 1.5 0 2.625 1.125 2.625 2.625 0 2.168-2.355 4.305-5.925 7.538zM12.375 2.25c-1.305 0-2.557 0.607-3.375 1.56-0.818-0.953-2.070-1.56-3.375-1.56-2.31 0-4.125 1.808-4.125 4.125 0 2.827 2.55 5.145 6.413 8.648l1.088 0.99 1.088-0.99c3.862-3.502 6.412-5.82 6.412-8.648 0-2.317-1.815-4.125-4.125-4.125z"></path>
</svg>
