<!-- Generated by IcoMoon.io -->
<svg version="1.1" xmlns="http://www.w3.org/2000/svg" width="18" height="18" viewBox="0 0 18 18">
<title>help-box</title>
<path d="M8.25 13.5h1.5v-1.5h-1.5v1.5zM9 4.5c-1.657 0-3 1.343-3 3v0h1.5c0-0.828 0.672-1.5 1.5-1.5v0c0.828 0 1.5 0.672 1.5 1.5v0c0 1.5-2.25 1.313-2.25 3.75h1.5c0-1.688 2.25-1.875 2.25-3.75 0-1.657-1.343-3-3-3v0zM3.75 2.25h10.5c0.828 0 1.5 0.672 1.5 1.5v0 10.5c0 0.828-0.672 1.5-1.5 1.5v0h-10.5c-0.828 0-1.5-0.672-1.5-1.5v0-10.5c0-0.828 0.672-1.5 1.5-1.5v0z"></path>
</svg>
