<!-- Generated by IcoMoon.io -->
<svg version="1.1" xmlns="http://www.w3.org/2000/svg" width="18" height="18" viewBox="0 0 18 18">
<title>history</title>
<path d="M10.125 6h-1.125v3.75l3.21 1.905 0.54-0.908-2.625-1.56v-3.187zM9.75 2.25c-3.728 0-6.75 3.022-6.75 6.75v0h-2.25l2.97 3.023 3.030-3.023h-2.25c0-2.899 2.351-5.25 5.25-5.25v0c2.899 0 5.25 2.351 5.25 5.25v0c0 2.899-2.351 5.25-5.25 5.25v0c-1.448 0-2.76-0.593-3.705-1.545l-1.065 1.065c1.223 1.23 2.895 1.98 4.77 1.98 3.728 0 6.75-3.022 6.75-6.75v0c0-3.728-3.022-6.75-6.75-6.75v0z"></path>
</svg>
