<!-- Generated by IcoMoon.io -->
<svg version="1.1" xmlns="http://www.w3.org/2000/svg" width="18" height="18" viewBox="0 0 18 18">
<title>key-remove</title>
<path d="M4.875 2.25c1.47 0 2.723 0.937 3.18 2.25h8.445v2.25h-3v2.25h-2.25v-2.25h-3.195c-0.458 1.313-1.71 2.25-3.18 2.25-1.875 0-3.375-1.5-3.375-3.375s1.5-3.375 3.375-3.375zM4.875 4.5c-0.621 0-1.125 0.504-1.125 1.125v0c0 0.621 0.504 1.125 1.125 1.125v0c0.621 0 1.125-0.504 1.125-1.125v0c0-0.621-0.504-1.125-1.125-1.125v0zM10.943 10.5l1.057 1.058-1.943 1.943 1.943 1.943-1.057 1.058-1.943-1.943-1.943 1.943-1.057-1.057 1.943-1.943-1.943-1.943 1.057-1.057 1.943 1.943 1.943-1.943z"></path>
</svg>
