<!-- Generated by IcoMoon.io -->
<svg version="1.1" xmlns="http://www.w3.org/2000/svg" width="18" height="18" viewBox="0 0 18 18">
<title>keyboard-outline</title>
<path d="M3 3.75c-0.828 0-1.5 0.672-1.5 1.5v0 7.5c0 0.828 0.672 1.5 1.5 1.5v0h12c0.828 0 1.5-0.672 1.5-1.5v0-7.5c0-0.828-0.672-1.5-1.5-1.5v0h-12zM3 5.25h12v7.5h-12v-7.5zM3.75 6v1.5h1.5v-1.5h-1.5zM6 6v1.5h1.5v-1.5h-1.5zM8.25 6v1.5h1.5v-1.5h-1.5zM10.5 6v1.5h1.5v-1.5h-1.5zM12.75 6v1.5h1.5v-1.5h-1.5zM3.75 8.25v1.5h1.5v-1.5h-1.5zM6 8.25v1.5h1.5v-1.5h-1.5zM8.25 8.25v1.5h1.5v-1.5h-1.5zM10.5 8.25v1.5h1.5v-1.5h-1.5zM12.75 8.25v1.5h1.5v-1.5h-1.5zM6 10.5v1.5h6v-1.5h-6z"></path>
</svg>
