<!-- Generated by IcoMoon.io -->
<svg version="1.1" xmlns="http://www.w3.org/2000/svg" width="18" height="18" viewBox="0 0 18 18">
<title>keyboard-esc</title>
<path d="M0.75 5.25h4.5v1.5h-3v1.5h3v1.5h-3v1.5h3v1.5h-4.5v-7.5zM8.25 5.25h3v1.5h-3v1.5h1.5c0.832 0 1.5 0.675 1.5 1.5v1.5c0 0.833-0.667 1.5-1.5 1.5h-3v-1.5h3v-1.5h-1.5c-0.825 0-1.5-0.667-1.5-1.5v-1.5c0-0.825 0.675-1.5 1.5-1.5zM14.25 5.25h1.5c0.832 0 1.5 0.675 1.5 1.5v0.75h-1.5v-0.75h-1.5v4.5h1.5v-0.75h1.5v0.75c0 0.832-0.667 1.5-1.5 1.5h-1.5c-0.825 0-1.5-0.667-1.5-1.5v-4.5c0-0.825 0.675-1.5 1.5-1.5z"></path>
</svg>
