<!-- Generated by IcoMoon.io -->
<svg version="1.1" xmlns="http://www.w3.org/2000/svg" width="18" height="18" viewBox="0 0 18 18">
<title>language-typescript</title>
<path d="M2.25 2.25h13.5v13.5h-13.5v-13.5zM10.283 13.395c0.375 0.735 1.133 1.297 2.318 1.297 1.2 0 2.1-0.622 2.1-1.77 0-1.057-0.607-1.53-1.688-1.995l-0.315-0.135c-0.548-0.233-0.78-0.39-0.78-0.765 0-0.307 0.233-0.548 0.607-0.548 0.36 0 0.6 0.158 0.818 0.548l0.982-0.652c-0.413-0.72-0.998-0.998-1.8-0.998-1.133 0-1.86 0.72-1.86 1.673 0 1.035 0.607 1.522 1.522 1.912l0.315 0.135c0.585 0.255 0.93 0.413 0.93 0.847 0 0.36-0.338 0.622-0.863 0.622-0.622 0-0.982-0.323-1.252-0.773l-1.035 0.6zM9.75 8.438h-3.75v1.125h1.125v5.437h1.313v-5.437h1.313v-1.125z"></path>
</svg>
