<!-- Generated by IcoMoon.io -->
<svg version="1.1" xmlns="http://www.w3.org/2000/svg" width="18" height="18" viewBox="0 0 18 18">
<title>link-variant-off</title>
<path d="M1.5 3.952l0.96-0.953 12.54 12.54-0.953 0.96-3.623-3.622-1.957 1.957c-1.463 1.463-3.84 1.463-5.302 0s-1.463-3.84 0-5.302l1.117-1.117c-0.008 0.615 0.090 1.23 0.3 1.822l-0.352 0.352c-0.885 0.877-0.885 2.303 0 3.18 0.878 0.885 2.303 0.885 3.18 0l1.965-1.95-1.215-1.207c-0.008 0.18-0.082 0.368-0.217 0.51-0.292 0.292-0.773 0.292-1.065 0-0.788-0.795-1.155-1.845-1.088-2.872l-4.29-4.297zM9.532 3.165c1.463-1.462 3.84-1.462 5.302 0s1.463 3.84 0 5.302l-1.117 1.117c0.008-0.615-0.090-1.23-0.3-1.815l0.352-0.36c0.885-0.877 0.885-2.303 0-3.18-0.877-0.885-2.303-0.885-3.18 0l-2.498 2.498-1.058-1.065 2.498-2.498zM10.057 6.877c0.293-0.293 0.773-0.293 1.065 0 1.027 1.027 1.335 2.497 0.922 3.795l-1.335-1.327c-0.037-0.51-0.255-1.013-0.652-1.403-0.307-0.292-0.307-0.773 0-1.065z"></path>
</svg>
