<!-- Generated by IcoMoon.io -->
<svg version="1.1" xmlns="http://www.w3.org/2000/svg" width="18" height="18" viewBox="0 0 18 18">
<title>lock</title>
<path d="M9 12.75c0.828 0 1.5-0.672 1.5-1.5v0c0-0.832-0.675-1.5-1.5-1.5-0.828 0-1.5 0.672-1.5 1.5v0c0 0.828 0.672 1.5 1.5 1.5v0zM13.5 6c0.828 0 1.5 0.672 1.5 1.5v0 7.5c0 0.828-0.672 1.5-1.5 1.5v0h-9c-0.828 0-1.5-0.672-1.5-1.5v0-7.5c0-0.833 0.675-1.5 1.5-1.5h0.75v-1.5c0-2.071 1.679-3.75 3.75-3.75v0c2.071 0 3.75 1.679 3.75 3.75v0 1.5h0.75zM9 2.25c-1.243 0-2.25 1.007-2.25 2.25v0 1.5h4.5v-1.5c0-1.243-1.007-2.25-2.25-2.25v0z"></path>
</svg>
