<!-- Generated by IcoMoon.io -->
<svg version="1.1" xmlns="http://www.w3.org/2000/svg" width="18" height="18" viewBox="0 0 18 18">
<title>lock-open-variant</title>
<path d="M13.5 0.75c-2.070 0-3.75 1.68-3.75 3.75v1.5h-6.75c-0.825 0-1.5 0.667-1.5 1.5v7.5c0 0.833 0.675 1.5 1.5 1.5h9c0.832 0 1.5-0.667 1.5-1.5v-7.5c0-0.825-0.667-1.5-1.5-1.5h-0.75v-1.5c0-1.245 1.005-2.25 2.25-2.25s2.25 1.005 2.25 2.25v1.5h1.5v-1.5c0-2.070-1.68-3.75-3.75-3.75zM7.5 9.75c0.825 0 1.5 0.667 1.5 1.5s-0.667 1.5-1.5 1.5c-0.825 0-1.5-0.667-1.5-1.5 0-0.825 0.675-1.5 1.5-1.5z"></path>
</svg>
