<!-- Generated by IcoMoon.io -->
<svg version="1.1" xmlns="http://www.w3.org/2000/svg" width="18" height="18" viewBox="0 0 18 18">
<title>magnify-scan</title>
<path d="M12.75 16.5v-1.5h2.25v-2.25h1.5v2.625c0 0.292-0.12 0.555-0.345 0.78s-0.487 0.345-0.78 0.345h-2.625zM5.25 16.5h-2.625c-0.293 0-0.555-0.12-0.78-0.345s-0.345-0.487-0.345-0.78v-2.625h1.5v2.25h2.25v1.5zM12.75 1.5h2.625c0.292 0 0.555 0.12 0.78 0.345s0.345 0.487 0.345 0.78v2.625h-1.5v-2.25h-2.25v-1.5zM5.25 1.5v1.5h-2.25v2.25h-1.5v-2.625c0-0.293 0.12-0.555 0.345-0.78s0.487-0.345 0.78-0.345h2.625zM7.875 4.5c1.875 0 3.375 1.5 3.375 3.375 0 0.66-0.188 1.275-0.518 1.8l2.445 2.445-1.057 1.057-2.445-2.445c-0.525 0.33-1.14 0.518-1.8 0.518-1.875 0-3.375-1.5-3.375-3.375s1.5-3.375 3.375-3.375zM7.875 6c-1.035 0-1.875 0.84-1.875 1.875s0.84 1.875 1.875 1.875c1.035 0 1.875-0.84 1.875-1.875s-0.84-1.875-1.875-1.875z"></path>
</svg>
