<!-- Generated by IcoMoon.io -->
<svg version="1.1" xmlns="http://www.w3.org/2000/svg" width="18" height="18" viewBox="0 0 18 18">
<title>magnify</title>
<path d="M7.125 2.25c2.692 0 4.875 2.183 4.875 4.875v0c0 1.207-0.442 2.317-1.17 3.172l0.203 0.202h0.593l3.75 3.75-1.125 1.125-3.75-3.75v-0.593l-0.202-0.203c-0.855 0.728-1.965 1.17-3.173 1.17-2.692 0-4.875-2.183-4.875-4.875v0c0-2.692 2.183-4.875 4.875-4.875v0zM7.125 3.75c-1.875 0-3.375 1.5-3.375 3.375s1.5 3.375 3.375 3.375c1.875 0 3.375-1.5 3.375-3.375s-1.5-3.375-3.375-3.375z"></path>
</svg>
