<!-- Generated by IcoMoon.io -->
<svg version="1.1" xmlns="http://www.w3.org/2000/svg" width="18" height="18" viewBox="0 0 18 18">
<title>new-box</title>
<path d="M15 3c0.833 0 1.5 0.667 1.5 1.5v9c0 0.832-0.667 1.5-1.5 1.5h-12c-0.833 0-1.5-0.667-1.5-1.5v-9c0-0.833 0.667-1.5 1.5-1.5h12zM6.375 11.25v-4.5h-0.937v2.625l-1.875-2.625h-0.937v4.5h0.937v-2.625l1.913 2.625h0.9zM10.125 7.695v-0.945h-3v4.5h3v-0.937h-1.875v-0.833h1.875v-0.945h-1.875v-0.84h1.875zM15.375 10.5v-3.75h-0.937v3.375h-0.84v-2.625h-0.937v2.625h-0.847v-3.375h-0.937v3.75c0 0.414 0.336 0.75 0.75 0.75v0h3c0.414 0 0.75-0.336 0.75-0.75v0z"></path>
</svg>
