<!-- Generated by IcoMoon.io -->
<svg version="1.1" xmlns="http://www.w3.org/2000/svg" width="18" height="18" viewBox="0 0 18 18">
<title>office-building</title>
<path d="M3.75 2.25v13.5h4.5v-2.625h1.5v2.625h4.5v-13.5h-10.5zM5.25 3.75h1.5v1.5h-1.5v-1.5zM8.25 3.75h1.5v1.5h-1.5v-1.5zM11.25 3.75h1.5v1.5h-1.5v-1.5zM5.25 6.75h1.5v1.5h-1.5v-1.5zM8.25 6.75h1.5v1.5h-1.5v-1.5zM11.25 6.75h1.5v1.5h-1.5v-1.5zM5.25 9.75h1.5v1.5h-1.5v-1.5zM8.25 9.75h1.5v1.5h-1.5v-1.5zM11.25 9.75h1.5v1.5h-1.5v-1.5zM5.25 12.75h1.5v1.5h-1.5v-1.5zM11.25 12.75h1.5v1.5h-1.5v-1.5z"></path>
</svg>
