<!-- Generated by IcoMoon.io -->
<svg version="1.1" xmlns="http://www.w3.org/2000/svg" width="17" height="18" viewBox="0 0 17 18">
<title>opera</title>
<path d="M10.662 2.416c-5.019 0-7.448 6.599-4.349 10.47 1.076 1.339 2.612 2.229 4.349 2.229 1.070 0 2.073-0.327 2.931-0.896-1.291 1.156-3.005 1.858-4.874 1.858-0.115 0-0.236 0-0.351-0.009-3.877-0.18-6.962-3.379-6.962-7.304 0-4.040 3.273-7.313 7.312-7.313h0.024c1.861 0.009 3.559 0.711 4.848 1.861-0.855-0.572-1.861-0.896-2.928-0.896zM13.663 14.142c-1.206 0.728-2.674 0.696-3.892-0.171 1.657-0.605 2.881-2.701 2.881-5.207 0-2.498-1.215-4.594-2.872-5.207 1.233-0.861 2.689-0.893 3.919-0.147 3.123 2.91 3.111 7.834-0.035 10.733z"></path>
</svg>
