<!-- Generated by IcoMoon.io -->
<svg version="1.1" xmlns="http://www.w3.org/2000/svg" width="18" height="18" viewBox="0 0 18 18">
<title>order-bool-descending-variant</title>
<path d="M3 2.25c-0.833 0-1.5 0.667-1.5 1.5v3c0 0.833 0.667 1.5 1.5 1.5h3c0.833 0 1.5-0.667 1.5-1.5v-3c0-0.833-0.667-1.5-1.5-1.5zM6.15 3.375l0.795 0.788-2.993 2.962-1.898-1.913 0.802-0.787 1.103 1.117zM3 9.75c-0.833 0-1.5 0.667-1.5 1.5v3c0 0.832 0.667 1.5 1.5 1.5h3c0.833 0 1.5-0.667 1.5-1.5v-3c0-0.832-0.667-1.5-1.5-1.5zM3 11.25h3v3h-3zM9 3.75h7.5v1.5h-7.5zM9 14.25v-1.5h7.5v1.5zM9 8.25h7.5v1.5h-7.5z"></path>
</svg>
