<!-- Generated by IcoMoon.io -->
<svg version="1.1" xmlns="http://www.w3.org/2000/svg" width="18" height="18" viewBox="0 0 18 18">
<title>order-numeric-ascending</title>
<path d="M5.25 15.75h-3v-1.5h3v-0.75h-1.5c-0.825 0-1.5-0.667-1.5-1.5v-0.75c0-0.825 0.675-1.5 1.5-1.5h1.5c0.833 0 1.5 0.675 1.5 1.5v3c0 0.832-0.667 1.5-1.5 1.5zM5.25 11.25h-1.5v0.75h1.5zM3.75 2.25h1.5c0.832 0 1.5 0.675 1.5 1.5v3c0 0.833-0.667 1.5-1.5 1.5h-1.5c-0.825 0-1.5-0.667-1.5-1.5v-3c0-0.825 0.675-1.5 1.5-1.5zM3.75 6.75h1.5v-3h-1.5zM9 3.75h7.5v1.5h-7.5zM9 14.25v-1.5h7.5v1.5zM9 8.25h7.5v1.5h-7.5z"></path>
</svg>
