<!-- Generated by IcoMoon.io -->
<svg version="1.1" xmlns="http://www.w3.org/2000/svg" width="18" height="18" viewBox="0 0 18 18">
<title>palette</title>
<path d="M13.125 9c-0.621 0-1.125-0.504-1.125-1.125v0c0-0.621 0.504-1.125 1.125-1.125v0c0.621 0 1.125 0.504 1.125 1.125v0c0 0.621-0.504 1.125-1.125 1.125v0zM10.875 6c-0.621 0-1.125-0.504-1.125-1.125v0c0-0.621 0.504-1.125 1.125-1.125v0c0.621 0 1.125 0.504 1.125 1.125v0c0 0.621-0.504 1.125-1.125 1.125v0zM7.125 6c-0.621 0-1.125-0.504-1.125-1.125v0c0-0.621 0.504-1.125 1.125-1.125v0c0.621 0 1.125 0.504 1.125 1.125v0c0 0.621-0.504 1.125-1.125 1.125v0zM4.875 9c-0.621 0-1.125-0.504-1.125-1.125v0c0-0.621 0.504-1.125 1.125-1.125v0c0.621 0 1.125 0.504 1.125 1.125v0c0 0.621-0.504 1.125-1.125 1.125v0zM9 2.25c-3.728 0-6.75 3.022-6.75 6.75v0c0 3.728 3.022 6.75 6.75 6.75v0c0.621 0 1.125-0.504 1.125-1.125v0c0-0.293-0.112-0.555-0.293-0.75-0.172-0.202-0.285-0.465-0.285-0.75 0-0.621 0.504-1.125 1.125-1.125v0h1.328c2.071 0 3.75-1.679 3.75-3.75v0c0-3.315-3.023-6-6.75-6z"></path>
</svg>
