<!-- Generated by IcoMoon.io -->
<svg version="1.1" xmlns="http://www.w3.org/2000/svg" width="18" height="18" viewBox="0 0 18 18">
<title>paperclip</title>
<path d="M12.375 4.5v8.625c0 1.657-1.343 3-3 3v0c-1.657 0-3-1.343-3-3v0-9.375c0-1.036 0.839-1.875 1.875-1.875v0c1.036 0 1.875 0.839 1.875 1.875v0 7.875c0 0.414-0.336 0.75-0.75 0.75v0c-0.414 0-0.75-0.336-0.75-0.75v0-7.125h-1.125v7.125c0 1.036 0.839 1.875 1.875 1.875v0c1.036 0 1.875-0.839 1.875-1.875v0-7.875c0-1.657-1.343-3-3-3v0c-1.657 0-3 1.343-3 3v0 9.375c0 2.278 1.847 4.125 4.125 4.125v0c2.278 0 4.125-1.847 4.125-4.125v0-8.625h-1.125z"></path>
</svg>
