<!-- Generated by IcoMoon.io -->
<svg version="1.1" xmlns="http://www.w3.org/2000/svg" width="18" height="18" viewBox="0 0 18 18">
<title>reflect-vertical</title>
<path d="M13.5 17.25h-9c-0.292 0-0.555-0.157-0.683-0.413s-0.098-0.563 0.075-0.787l4.508-6.015c0.285-0.383 0.915-0.383 1.2 0l4.508 6.015c0.172 0.225 0.203 0.532 0.075 0.787s-0.39 0.413-0.683 0.413zM13.5 0.75c0.293 0 0.555 0.157 0.683 0.413s0.098 0.563-0.075 0.787l-4.508 6.015c-0.285 0.383-0.915 0.383-1.2 0l-4.508-6.015c-0.172-0.225-0.203-0.532-0.075-0.787s0.39-0.413 0.683-0.413h9zM6 2.25l3 4.013 3-4.013h-6z"></path>
</svg>
