<!-- Generated by IcoMoon.io -->
<svg version="1.1" xmlns="http://www.w3.org/2000/svg" width="18" height="18" viewBox="0 0 18 18">
<title>rotate-right</title>
<path d="M12.668 11.625l1.065 1.043c0.675-0.87 1.088-1.875 1.215-2.917h-1.515c-0.105 0.653-0.36 1.29-0.765 1.875zM9.75 13.425v1.515c1.043-0.127 2.055-0.532 2.925-1.207l-1.080-1.080c-0.563 0.405-1.193 0.667-1.845 0.773zM14.948 8.25c-0.127-1.043-0.54-2.048-1.215-2.917l-1.065 1.065c0.405 0.563 0.66 1.2 0.765 1.853zM11.663 4.163l-3.412-3.412v2.303c-2.955 0.368-5.25 2.888-5.25 5.948s2.287 5.58 5.25 5.948v-1.515c-2.13-0.36-3.75-2.205-3.75-4.432s1.62-4.073 3.75-4.433v2.933l3.412-3.338z"></path>
</svg>
