<!-- Generated by IcoMoon.io -->
<svg version="1.1" xmlns="http://www.w3.org/2000/svg" width="18" height="18" viewBox="0 0 18 18">
<title>rotate-right-variant</title>
<path d="M7.5 3v-2.25l3 3-3 3v-2.25c-2.485 0-4.5 2.015-4.5 4.5v0l0.060 0.75h-1.515l-0.045-0.75c0-3.314 2.686-6 6-6v0zM12.75 1.5h2.25c0.828 0 1.5 0.672 1.5 1.5v0 12c0 0.828-0.672 1.5-1.5 1.5v0h-2.25c-0.828 0-1.5-0.672-1.5-1.5v0-12c0-0.828 0.672-1.5 1.5-1.5v0zM3 11.25h6.75v5.25h-6.75c-0.828 0-1.5-0.672-1.5-1.5v0-2.25c0-0.828 0.672-1.5 1.5-1.5v0z"></path>
</svg>
