<!-- Generated by IcoMoon.io -->
<svg version="1.1" xmlns="http://www.w3.org/2000/svg" width="18" height="18" viewBox="0 0 18 18">
<title>rotate-left</title>
<path d="M9.75 3.052v-2.303l-3.412 3.412 3.412 3.338v-2.933c2.13 0.36 3.75 2.205 3.75 4.433s-1.62 4.073-3.75 4.432v1.515c2.962-0.368 5.25-2.888 5.25-5.948s-2.287-5.58-5.25-5.948zM5.325 13.74c0.87 0.675 1.882 1.080 2.925 1.207v-1.522c-0.652-0.113-1.282-0.368-1.845-0.773l-1.080 1.088zM4.567 9.75h-1.515c0.127 1.043 0.54 2.047 1.215 2.917l1.058-1.065c-0.39-0.563-0.652-1.193-0.757-1.853zM5.333 6.398l-1.058-1.065c-0.675 0.87-1.095 1.875-1.223 2.917h1.515c0.105-0.652 0.368-1.29 0.765-1.853z"></path>
</svg>
