<!-- Generated by IcoMoon.io -->
<svg version="1.1" xmlns="http://www.w3.org/2000/svg" width="18" height="18" viewBox="0 0 18 18">
<title>rotate-left-variant</title>
<path d="M3 1.5h2.25c0.828 0 1.5 0.672 1.5 1.5v0 12c0 0.828-0.672 1.5-1.5 1.5v0h-2.25c-0.828 0-1.5-0.672-1.5-1.5v0-12c0-0.828 0.672-1.5 1.5-1.5v0zM15 11.25c0.828 0 1.5 0.672 1.5 1.5v0 2.25c0 0.828-0.672 1.5-1.5 1.5v0h-6.75v-5.25h6.75zM10.5 3c3.314 0 6 2.686 6 6v0l-0.045 0.75h-1.515l0.060-0.75c0-2.485-2.015-4.5-4.5-4.5v0 2.25l-3-3 3-3v2.25z"></path>
</svg>
