<!-- Generated by IcoMoon.io -->
<svg version="1.1" xmlns="http://www.w3.org/2000/svg" width="18" height="18" viewBox="0 0 18 18">
<title>ruler</title>
<path d="M1.043 13.77l1.327-1.32 1.065 1.050 0.795-0.787-1.065-1.057 1.065-1.065 1.853 1.86 0.795-0.795-1.853-1.86 1.057-1.058 1.065 1.058 0.795-0.795-1.065-1.057 1.065-1.065 1.853 1.86 0.795-0.795-1.853-1.86 1.057-1.057 1.058 1.057 0.802-0.795-1.065-1.058 1.065-1.065 1.845 1.86 0.802-0.795-1.853-1.86 1.32-1.327 3.187 3.187-12.727 12.727-3.187-3.187z"></path>
</svg>
