<!-- Generated by IcoMoon.io -->
<svg version="1.1" xmlns="http://www.w3.org/2000/svg" width="18" height="18" viewBox="0 0 18 18">
<title>ruler-square</title>
<path d="M2.25 3.75v12h4.5v-1.125h-1.5v-1.125h1.5v-1.125h-3v-1.125h3v-1.125h-1.5v-1.125h1.5v-1.125h-3v-1.125h3v-3h1.125v3h1.125v-1.5h1.125v1.5h1.125v-3h1.125v3h1.125v-1.5h1.125v1.5h1.125v-4.5h-12c-0.828 0-1.5 0.672-1.5 1.5v0zM4.5 5.25c-0.414 0-0.75-0.336-0.75-0.75v0c0-0.414 0.336-0.75 0.75-0.75v0c0.414 0 0.75 0.336 0.75 0.75v0c0 0.414-0.336 0.75-0.75 0.75v0z"></path>
</svg>
