<!-- Generated by IcoMoon.io -->
<svg version="1.1" xmlns="http://www.w3.org/2000/svg" width="18" height="18" viewBox="0 0 18 18">
<title>server</title>
<path d="M3 0.75h12c0.414 0 0.75 0.336 0.75 0.75v0 3c0 0.414-0.336 0.75-0.75 0.75v0h-12c-0.414 0-0.75-0.336-0.75-0.75v0-3c0-0.414 0.336-0.75 0.75-0.75v0zM3 6.75h12c0.414 0 0.75 0.336 0.75 0.75v0 3c0 0.414-0.336 0.75-0.75 0.75v0h-12c-0.414 0-0.75-0.336-0.75-0.75v0-3c0-0.414 0.336-0.75 0.75-0.75v0zM3 12.75h12c0.414 0 0.75 0.336 0.75 0.75v0 3c0 0.414-0.336 0.75-0.75 0.75v0h-12c-0.414 0-0.75-0.336-0.75-0.75v0-3c0-0.414 0.336-0.75 0.75-0.75v0zM6.75 3.75h0.75v-1.5h-0.75v1.5zM6.75 9.75h0.75v-1.5h-0.75v1.5zM6.75 15.75h0.75v-1.5h-0.75v1.5zM3.75 2.25v1.5h1.5v-1.5h-1.5zM3.75 8.25v1.5h1.5v-1.5h-1.5zM3.75 14.25v1.5h1.5v-1.5h-1.5z"></path>
</svg>
