<!-- Generated by IcoMoon.io -->
<svg version="1.1" xmlns="http://www.w3.org/2000/svg" width="18" height="18" viewBox="0 0 18 18">
<title>sort-bool-ascending-variant</title>
<path d="M14.25 12.75h2.25l-3 3-3-3h2.25v-10.5h1.5v10.5zM6.75 9.75h-3c-0.833 0-1.5 0.667-1.5 1.5v3c0 0.832 0.667 1.5 1.5 1.5h3c0.833 0 1.5-0.667 1.5-1.5v-3c0-0.832-0.667-1.5-1.5-1.5zM4.702 14.625l-1.898-1.912 0.802-0.787 1.103 1.117 2.19-2.168 0.795 0.787-2.992 2.962zM6.75 2.25h-3c-0.833 0-1.5 0.667-1.5 1.5v3c0 0.833 0.667 1.5 1.5 1.5h3c0.833 0 1.5-0.667 1.5-1.5v-3c0-0.833-0.667-1.5-1.5-1.5zM6.75 6.75h-3v-3h3v3z"></path>
</svg>
