<!-- Generated by IcoMoon.io -->
<svg version="1.1" xmlns="http://www.w3.org/2000/svg" width="18" height="18" viewBox="0 0 18 18">
<title>table-large</title>
<path d="M3 2.25h12c0.828 0 1.5 0.672 1.5 1.5v0 11.25c0 0.828-0.672 1.5-1.5 1.5v0h-12c-0.828 0-1.5-0.672-1.5-1.5v0-11.25c0-0.828 0.672-1.5 1.5-1.5v0zM3 5.25v2.25h3v-2.25h-3zM7.5 5.25v2.25h3v-2.25h-3zM15 7.5v-2.25h-3v2.25h3zM3 9v2.25h3v-2.25h-3zM3 15h3v-2.25h-3v2.25zM7.5 9v2.25h3v-2.25h-3zM7.5 15h3v-2.25h-3v2.25zM15 15v-2.25h-3v2.25h3zM15 9h-3v2.25h3v-2.25z"></path>
</svg>
