<!-- Generated by IcoMoon.io -->
<svg version="1.1" xmlns="http://www.w3.org/2000/svg" width="18" height="18" viewBox="0 0 18 18">
<title>tag-multiple</title>
<path d="M4.125 6.75c0.621 0 1.125-0.504 1.125-1.125v0c0-0.621-0.504-1.125-1.125-1.125v0c-0.621 0-1.125 0.504-1.125 1.125v0c0 0.621 0.504 1.125 1.125 1.125v0zM13.058 8.685c0.27 0.27 0.442 0.645 0.442 1.065 0 0.413-0.165 0.787-0.442 1.057l-3.75 3.75c-0.27 0.27-0.645 0.442-1.057 0.442s-0.787-0.165-1.065-0.442l-5.243-5.242c-0.278-0.278-0.442-0.652-0.442-1.065v-3.75c0-0.832 0.667-1.5 1.5-1.5h3.75c0.413 0 0.788 0.165 1.058 0.435l5.25 5.25zM10.155 4.283l0.75-0.75 5.152 5.152c0.278 0.27 0.442 0.652 0.442 1.065s-0.165 0.787-0.435 1.057l-4.035 4.035-0.75-0.75 4.283-4.342-5.408-5.468z"></path>
</svg>
