<!-- Generated by IcoMoon.io -->
<svg version="1.1" xmlns="http://www.w3.org/2000/svg" width="18" height="18" viewBox="0 0 18 18">
<title>thumb-down-outline</title>
<path d="M14.25 11.25v-9h3v9h-3zM11.25 2.25c0.828 0 1.5 0.672 1.5 1.5v0 7.5c0 0.413-0.165 0.787-0.442 1.057l-4.935 4.942-0.795-0.795c-0.202-0.203-0.33-0.48-0.33-0.795l0.022-0.233 0.712-3.428h-4.733c-0.833 0-1.5-0.675-1.5-1.5v-1.5c0-0.195 0.037-0.375 0.105-0.548l2.265-5.288c0.225-0.54 0.757-0.915 1.38-0.915h6.75zM11.25 3.75h-6.772l-2.228 5.25v1.5h6.585l-0.847 3.99 3.262-3.262v-7.478z"></path>
</svg>
