<!-- Generated by IcoMoon.io -->
<svg version="1.1" xmlns="http://www.w3.org/2000/svg" width="18" height="18" viewBox="0 0 18 18">
<title>timer-outline</title>
<path d="M9 15c-2.899 0-5.25-2.351-5.25-5.25v0c0-2.899 2.351-5.25 5.25-5.25v0c2.899 0 5.25 2.351 5.25 5.25v0c0 2.899-2.351 5.25-5.25 5.25v0zM14.273 5.543l1.065-1.065c-0.338-0.383-0.675-0.728-1.057-1.058l-1.065 1.080c-1.162-0.945-2.625-1.5-4.215-1.5-3.728 0-6.75 3.022-6.75 6.75v0c0 3.728 3.022 6.75 6.75 6.75v0c3.75 0 6.75-3.023 6.75-6.75 0-1.59-0.555-3.052-1.477-4.208zM8.25 10.5h1.5v-4.5h-1.5zM11.25 0.75h-4.5v1.5h4.5v-1.5z"></path>
</svg>
