<!-- Generated by IcoMoon.io -->
<svg version="1.1" xmlns="http://www.w3.org/2000/svg" width="18" height="18" viewBox="0 0 18 18">
<title>translate</title>
<path d="M9.652 11.303l-1.905-1.882 0.022-0.023c1.305-1.455 2.235-3.127 2.782-4.897h2.197v-1.5h-5.25v-1.5h-1.5v1.5h-5.25v1.5h8.378c-0.503 1.44-1.297 2.813-2.377 4.013-0.698-0.773-1.275-1.62-1.732-2.512h-1.5c0.548 1.223 1.297 2.377 2.235 3.42l-3.817 3.765 1.065 1.065 3.75-3.75 2.332 2.332 0.57-1.53zM13.875 7.5h-1.5l-3.375 9h1.5l0.84-2.25h3.563l0.847 2.25h1.5l-3.375-9zM11.91 12.75l1.215-3.248 1.215 3.248h-2.43z"></path>
</svg>
