<!-- Generated by IcoMoon.io -->
<svg version="1.1" xmlns="http://www.w3.org/2000/svg" width="18" height="18" viewBox="0 0 18 18">
<title>twitter</title>
<path d="M15.049 5.898c0.010 0.135 0.010 0.271 0.010 0.406 0 4.126-3.141 8.881-8.881 8.881-1.768 0-3.411-0.512-4.793-1.401 0.251 0.029 0.493 0.039 0.754 0.039 1.459 0 2.802-0.493 3.875-1.334-1.372-0.029-2.522-0.928-2.918-2.165 0.193 0.029 0.387 0.048 0.589 0.048 0.28 0 0.56-0.039 0.821-0.106-1.43-0.29-2.503-1.546-2.503-3.063v-0.039c0.416 0.232 0.899 0.377 1.411 0.396-0.841-0.56-1.392-1.517-1.392-2.599 0-0.58 0.155-1.111 0.425-1.575 1.536 1.894 3.846 3.131 6.436 3.266-0.048-0.232-0.077-0.474-0.077-0.715 0-1.72 1.392-3.121 3.121-3.121 0.899 0 1.71 0.377 2.281 0.986 0.705-0.135 1.382-0.396 1.981-0.754-0.232 0.725-0.725 1.334-1.372 1.72 0.628-0.068 1.237-0.242 1.797-0.483-0.425 0.618-0.957 1.169-1.565 1.614z"></path>
</svg>
