<!-- Generated by IcoMoon.io -->
<svg version="1.1" xmlns="http://www.w3.org/2000/svg" width="18" height="18" viewBox="0 0 18 18">
<title>update</title>
<path d="M15.75 7.59h-5.085l2.055-2.115c-2.048-2.025-5.363-2.1-7.41-0.075-2.048 2.033-2.048 5.31 0 7.35 2.048 2.025 5.363 2.025 7.41 0 1.020-1.012 1.53-2.19 1.53-3.675h1.5c0 1.485-0.66 3.412-1.98 4.717-2.632 2.61-6.907 2.61-9.54 0-2.625-2.602-2.647-6.832-0.015-9.435s6.855-2.602 9.487 0l2.047-2.107v5.34zM9.375 6v3.187l2.625 1.56-0.54 0.908-3.21-1.905v-3.75h1.125z"></path>
</svg>
