<!-- Generated by IcoMoon.io -->
<svg version="1.1" xmlns="http://www.w3.org/2000/svg" width="18" height="18" viewBox="0 0 18 18">
<title>web</title>
<path d="M12.27 10.5c0.060-0.495 0.105-0.99 0.105-1.5s-0.045-1.005-0.105-1.5h2.535c0.12 0.48 0.195 0.982 0.195 1.5s-0.075 1.020-0.195 1.5zM10.943 14.67c0.45-0.832 0.795-1.732 1.035-2.67h2.213c-0.72 1.238-1.867 2.197-3.248 2.67zM10.755 10.5h-3.51c-0.075-0.495-0.12-0.99-0.12-1.5s0.045-1.013 0.12-1.5h3.51c0.068 0.487 0.12 0.99 0.12 1.5s-0.053 1.005-0.12 1.5zM9 14.97c-0.622-0.9-1.125-1.898-1.432-2.97h2.865c-0.307 1.072-0.81 2.070-1.432 2.97zM6 6h-2.19c0.712-1.245 1.867-2.205 3.24-2.67-0.45 0.833-0.787 1.732-1.050 2.67zM3.81 12h2.19c0.262 0.937 0.6 1.837 1.050 2.67-1.372-0.473-2.528-1.432-3.24-2.67zM3.195 10.5c-0.12-0.48-0.195-0.982-0.195-1.5s0.075-1.020 0.195-1.5h2.535c-0.060 0.495-0.105 0.99-0.105 1.5s0.045 1.005 0.105 1.5zM9 3.023c0.622 0.9 1.125 1.905 1.432 2.978h-2.865c0.307-1.072 0.81-2.078 1.432-2.978zM14.19 6h-2.213c-0.24-0.937-0.585-1.837-1.035-2.67 1.38 0.472 2.528 1.425 3.248 2.67zM9 1.5c-4.148 0-7.5 3.375-7.5 7.5 0 4.142 3.358 7.5 7.5 7.5v0c4.142 0 7.5-3.358 7.5-7.5v0c0-4.142-3.358-7.5-7.5-7.5v0z"></path>
</svg>
