<!-- Generated by IcoMoon.io -->
<svg version="1.1" xmlns="http://www.w3.org/2000/svg" width="18" height="18" viewBox="0 0 18 18">
<title>help-circle</title>
<path fill="#864f4f" d="M11.303 8.438l-0.675 0.69c-0.54 0.54-0.877 0.998-0.877 2.123h-1.5v-0.375c0-0.833 0.338-1.583 0.877-2.123l0.93-0.945c0.278-0.27 0.442-0.645 0.442-1.058 0-0.833-0.675-1.5-1.5-1.5-0.828 0-1.5 0.672-1.5 1.5v0h-1.5c0-1.657 1.343-3 3-3v0c1.657 0 3 1.343 3 3v0c0 0.66-0.27 1.252-0.697 1.688zM9.75 14.25h-1.5v-1.5h1.5zM9 1.5c-4.142 0-7.5 3.358-7.5 7.5v0c0 4.142 3.358 7.5 7.5 7.5v0c4.142 0 7.5-3.358 7.5-7.5v0c0-4.148-3.375-7.5-7.5-7.5z"></path>
</svg>
