<!-- Generated by IcoMoon.io -->
<svg version="1.1" xmlns="http://www.w3.org/2000/svg" width="18" height="18" viewBox="0 0 18 18">
<title>account-circle</title>
<path fill="#4d5ee0" d="M9 14.4c-1.875 0-3.533-0.96-4.5-2.4 0.022-1.5 3-2.325 4.5-2.325s4.478 0.825 4.5 2.325c-0.967 1.44-2.625 2.4-4.5 2.4zM9 3.75c1.243 0 2.25 1.007 2.25 2.25v0c0 1.243-1.007 2.25-2.25 2.25v0c-1.243 0-2.25-1.007-2.25-2.25v0c0-1.243 1.007-2.25 2.25-2.25v0zM9 1.5c-4.142 0-7.5 3.358-7.5 7.5v0c0 4.142 3.358 7.5 7.5 7.5v0c4.142 0 7.5-3.358 7.5-7.5v0c0-4.148-3.375-7.5-7.5-7.5z"></path>
</svg>
