<!-- Generated by IcoMoon.io -->
<svg version="1.1" xmlns="http://www.w3.org/2000/svg" width="18" height="18" viewBox="0 0 18 18">
<title>account-hard-hat</title>
<path fill="#4d5ee0" d="M9 11.25c-3.315 0-6 1.342-6 3v1.5h12v-1.5c0-1.657-2.685-3-6-3zM6 6.75c0 1.657 1.343 3 3 3v0c1.657 0 3-1.343 3-3v0zM8.625 1.5c-0.225 0-0.375 0.158-0.375 0.375v2.25h-0.75v-1.875c0 0-1.688 0.645-1.688 2.813 0 0-0.563 0.105-0.563 0.937h7.5c-0.037-0.833-0.563-0.937-0.563-0.937 0-2.168-1.688-2.812-1.688-2.812v1.875h-0.75v-2.25c0-0.217-0.143-0.375-0.375-0.375h-0.75z"></path>
</svg>
