<!-- Generated by IcoMoon.io -->
<svg version="1.1" xmlns="http://www.w3.org/2000/svg" width="18" height="18" viewBox="0 0 18 18">
<title>alarm</title>
<path fill="#4d5ee0" d="M9 15c-2.899 0-5.25-2.351-5.25-5.25v0c0-2.899 2.351-5.25 5.25-5.25v0c2.899 0 5.25 2.351 5.25 5.25v0c0 2.899-2.351 5.25-5.25 5.25v0zM9 3c-3.728 0-6.75 3.022-6.75 6.75v0c0 3.728 3.022 6.75 6.75 6.75v0c3.728 0 6.75-3.022 6.75-6.75v0c0-3.728-3.022-6.75-6.75-6.75v0zM9.375 6h-1.125v4.5l3.563 2.137 0.563-0.922-3-1.777v-3.938zM5.91 2.542l-0.96-1.147-3.45 2.888 0.967 1.147 3.443-2.888zM16.5 4.29l-3.45-2.895-0.967 1.147 3.45 2.895 0.967-1.147z"></path>
</svg>
