<!-- Generated by IcoMoon.io -->
<svg version="1.1" xmlns="http://www.w3.org/2000/svg" width="18" height="18" viewBox="0 0 18 18">
<title>antenna</title>
<path fill="#4d5ee0" d="M9 5.625c0.518 0 0.953 0.172 1.32 0.525s0.555 0.802 0.555 1.35c0 0.788-0.375 1.358-1.125 1.71v6.54h-1.5v-6.54c-0.75-0.352-1.125-0.923-1.125-1.71 0-0.548 0.195-0.998 0.555-1.35s0.802-0.525 1.32-0.525zM12.518 3.975c0.937 0.937 1.44 2.107 1.508 3.525 0 1.35-0.503 2.535-1.508 3.54l-0.892-0.915c0.75-0.683 1.125-1.56 1.125-2.625 0-0.998-0.375-1.875-1.125-2.625l0.892-0.9zM4.567 3.060c-1.193 1.193-1.792 2.67-1.792 4.44s0.6 3.225 1.792 4.418l-0.878 0.915c-1.44-1.522-2.19-3.307-2.19-5.333s0.75-3.795 2.19-5.318l0.878 0.877zM14.31 2.183c1.44 1.522 2.19 3.293 2.19 5.318 0 2.1-0.75 3.878-2.19 5.333l-0.877-0.915c1.193-1.193 1.792-2.67 1.792-4.418s-0.6-3.248-1.792-4.44l0.877-0.877zM5.482 3.975l0.892 0.9c-0.75 0.69-1.125 1.56-1.125 2.625 0 0.998 0.375 1.875 1.125 2.625l-0.892 0.915c-1.005-1.005-1.507-2.19-1.507-3.54s0.503-2.52 1.507-3.525z"></path>
</svg>
