<!-- Generated by IcoMoon.io -->
<svg version="1.1" xmlns="http://www.w3.org/2000/svg" width="18" height="18" viewBox="0 0 18 18">
<title>apple-icloud</title>
<path fill="#4d5ee0" d="M16.5 11.28c0 1.642-1.32 2.97-2.947 2.97h-9.105c-1.628 0-2.948-1.328-2.948-2.97 0-1.477 1.072-2.7 2.483-2.925-0.022-0.105-0.030-0.21-0.030-0.323 0-1.035 0.832-1.882 1.867-1.882 0.458 0 0.885 0.172 1.207 0.45 0.577-1.313 1.32-2.52 3.405-2.52 2.528 0 3.72 1.965 3.72 4.042 0 0.082 0 0.172-0.008 0.255 1.342 0.278 2.355 1.47 2.355 2.903z"></path>
</svg>
