<!-- Generated by IcoMoon.io -->
<svg version="1.1" xmlns="http://www.w3.org/2000/svg" width="18" height="18" viewBox="0 0 18 18">
<title>arrow-all</title>
<path fill="#4d5ee0" d="M9.75 8.25h3.75l-1.125-1.125 1.065-1.065 2.94 2.94-2.94 2.94-1.065-1.065 1.125-1.125h-3.75v3.75l1.125-1.125 1.065 1.065-2.94 2.94-2.94-2.94 1.065-1.065 1.125 1.125v-3.75h-3.75l1.125 1.125-1.065 1.065-2.94-2.94 2.94-2.94 1.065 1.065-1.125 1.125h3.75v-3.75l-1.125 1.125-1.065-1.065 2.94-2.94 2.94 2.94-1.065 1.065-1.125-1.125v3.75z"></path>
</svg>
