<!-- Generated by IcoMoon.io -->
<svg version="1.1" xmlns="http://www.w3.org/2000/svg" width="18" height="18" viewBox="0 0 18 18">
<title>autorenew</title>
<path fill="#4d5ee0" d="M9 4.5v2.25l3-3-3-3v2.25c-3.314 0-6 2.686-6 6v0c0 1.178 0.345 2.273 0.93 3.195l1.095-1.095c-0.338-0.622-0.525-1.35-0.525-2.1 0-2.485 2.015-4.5 4.5-4.5v0zM14.070 5.805l-1.095 1.095c0.33 0.63 0.525 1.35 0.525 2.1 0 2.485-2.015 4.5-4.5 4.5v0-2.25l-3 3 3 3v-2.25c3.314 0 6-2.686 6-6v0c0-1.178-0.345-2.272-0.93-3.195z"></path>
</svg>
