<!-- Generated by IcoMoon.io -->
<svg version="1.1" xmlns="http://www.w3.org/2000/svg" width="18" height="18" viewBox="0 0 18 18">
<title>backspace</title>
<path fill="#4d5ee0" d="M16.5 2.25h-11.25c-0.518 0-0.922 0.262-1.192 0.66l-4.058 6.090 4.058 6.083c0.27 0.397 0.675 0.667 1.192 0.667h11.25c0.828 0 1.5-0.672 1.5-1.5v0-10.5c0-0.828-0.672-1.5-1.5-1.5v0zM14.25 11.692l-1.058 1.057-2.692-2.692-2.692 2.692-1.057-1.057 2.692-2.692-2.692-2.692 1.057-1.058 2.692 2.692 2.692-2.692 1.058 1.058-2.692 2.692z"></path>
</svg>
