<!-- Generated by IcoMoon.io -->
<svg version="1.1" xmlns="http://www.w3.org/2000/svg" width="18" height="18" viewBox="0 0 18 18">
<title>bell-off</title>
<path fill="#4d5ee0" d="M15.63 17.047l-2.047-2.047h-11.332v-0.75l1.5-1.5v-4.5c0-0.855 0.217-1.702 0.622-2.46l-3.54-3.54 0.96-0.953 14.79 14.797-0.953 0.953zM14.25 11.85v-3.6c0-2.325-1.522-4.373-3.75-5.032 0-0.075 0-0.143 0-0.217 0-0.828-0.672-1.5-1.5-1.5v0c-0.828 0-1.5 0.672-1.5 1.5v0c0 0.075 0 0.143 0 0.217-0.458 0.135-0.9 0.337-1.305 0.6l8.055 8.032zM9 17.25c0.828 0 1.5-0.672 1.5-1.5v0h-3c0 0.828 0.672 1.5 1.5 1.5v0z"></path>
</svg>
