<!-- Generated by IcoMoon.io -->
<svg version="1.1" xmlns="http://www.w3.org/2000/svg" width="18" height="18" viewBox="0 0 18 18">
<title>bootstrap</title>
<path fill="#4d5ee0" d="M8.843 8.625h-1.553v-2.483h1.853c0.945 0 1.47 0.42 1.47 1.192 0 0.84-0.622 1.29-1.77 1.29zM9.12 9.473h-1.83v2.73h1.92c1.17 0 1.785-0.473 1.785-1.373s-0.638-1.358-1.875-1.358zM16.5 3.982v10.035c0 1.358-1.125 2.483-2.483 2.483h-10.035c-1.358 0-2.483-1.125-2.483-2.483v-10.035c0-1.358 1.125-2.483 2.483-2.483h10.035c1.358 0 2.483 1.125 2.483 2.483zM12 10.875c0-1.035-0.69-1.777-1.747-1.913v-0.045c0.75-0.135 1.342-0.885 1.342-1.695 0-1.162-0.9-1.935-2.22-1.935h-3.052v7.77h3.030c1.657 0 2.647-0.818 2.647-2.182z"></path>
</svg>
