<!-- Generated by IcoMoon.io -->
<svg version="1.1" xmlns="http://www.w3.org/2000/svg" width="18" height="18" viewBox="0 0 18 18">
<title>buffer</title>
<path fill="#4d5ee0" d="M9.45 2.145c2.002 0.93 4.050 1.898 6.045 2.827 0.112 0.053 0.255 0.090 0.255 0.24s-0.143 0.18-0.255 0.233c-1.995 0.93-4.020 1.882-6.030 2.805-0.307 0.158-0.622 0.158-0.93 0-2.017-0.93-4.035-1.875-6.045-2.812-0.105-0.045-0.24-0.082-0.24-0.233 0-0.135 0.135-0.172 0.233-0.217 2.017-0.945 4.072-1.913 6.098-2.85 0.217-0.098 0.645-0.090 0.87 0.008zM9 15.862c-0.15 0-0.255-0.060-0.465-0.135-2.017-0.93-4.035-1.875-6.038-2.813-0.105-0.053-0.248-0.082-0.248-0.24 0-0.15 0.143-0.18 0.255-0.233 0.33-0.158 0.667-0.315 0.998-0.473 0.337-0.15 0.667-0.15 0.998 0.008 1.342 0.622 2.677 1.245 4.013 1.868 0.33 0.158 0.66 0.15 0.99 0 1.335-0.63 2.67-1.252 3.997-1.875 0.33-0.15 0.652-0.158 0.967-0.008 0.36 0.158 0.712 0.33 1.065 0.495 0.053 0.022 0.105 0.053 0.15 0.090 0.098 0.075 0.098 0.202 0 0.262-0.060 0.045-0.127 0.082-0.195 0.112-1.988 0.953-3.99 1.868-5.993 2.79-0.15 0.075-0.352 0.15-0.495 0.15zM9 12.127c-0.075 0-0.338-0.075-0.48-0.127-2.010-0.945-4.020-1.875-6.015-2.82-0.105-0.045-0.255-0.082-0.255-0.233 0-0.157 0.15-0.188 0.262-0.24 0.337-0.165 0.675-0.323 1.012-0.48 0.323-0.143 0.645-0.143 0.975 0.022 1.335 0.615 2.685 1.245 4.035 1.875 0.307 0.143 0.622 0.143 0.937 0 1.35-0.638 2.7-1.268 4.058-1.898 0.307-0.143 0.622-0.143 0.937 0 0.352 0.165 0.712 0.33 1.065 0.495 0.045 0.022 0.098 0.045 0.143 0.082 0.105 0.082 0.105 0.195-0.008 0.285-0.037 0.030-0.090 0.053-0.135 0.075-2.033 0.96-4.050 1.898-6.075 2.835-0.143 0.068-0.397 0.127-0.458 0.127z"></path>
</svg>
