<!-- Generated by IcoMoon.io -->
<svg version="1.1" xmlns="http://www.w3.org/2000/svg" width="18" height="18" viewBox="0 0 18 18">
<title>camera</title>
<path fill="#4d5ee0" d="M3 3h2.25l1.5-1.5h4.5l1.5 1.5h2.25c0.828 0 1.5 0.672 1.5 1.5v0 9c0 0.828-0.672 1.5-1.5 1.5v0h-12c-0.828 0-1.5-0.672-1.5-1.5v0-9c0-0.828 0.672-1.5 1.5-1.5v0zM9 5.25c-2.071 0-3.75 1.679-3.75 3.75v0c0 2.071 1.679 3.75 3.75 3.75v0c2.071 0 3.75-1.679 3.75-3.75v0c0-2.071-1.679-3.75-3.75-3.75v0zM9 6.75c1.243 0 2.25 1.007 2.25 2.25v0c0 1.243-1.007 2.25-2.25 2.25v0c-1.243 0-2.25-1.007-2.25-2.25v0c0-1.243 1.007-2.25 2.25-2.25v0z"></path>
</svg>
