<!-- Generated by IcoMoon.io -->
<svg version="1.1" xmlns="http://www.w3.org/2000/svg" width="17" height="18" viewBox="0 0 17 18">
<title>chrome</title>
<path fill="#4d5ee0" d="M5.284 7.865l-2.253-3.462c1.403-1.746 3.509-2.707 5.661-2.716 1.247-0.009 2.521 0.31 3.68 0.979 1.28 0.743 2.253 1.81 2.872 3.037l-6.053-0.319c-1.713-0.1-3.344 0.864-3.907 2.48zM6.254 9c0 1.362 1.103 2.465 2.465 2.465s2.465-1.103 2.465-2.465-1.103-2.465-2.465-2.465-2.465 1.1-2.465 2.465zM15.539 6.37l-4.119 0.212c1.117 1.306 1.135 3.19 0.195 4.635l-3.305 5.083c1.371 0.074 2.783-0.227 4.063-0.97 3.167-1.828 4.449-5.661 3.167-8.961zM5.348 10.403l-2.751-5.411c-0.752 1.15-1.191 2.53-1.191 4.007 0 3.656 2.677 6.684 6.177 7.221l1.878-3.68c-1.698 0.319-3.338-0.613-4.113-2.138z"></path>
</svg>
