<!-- Generated by IcoMoon.io -->
<svg version="1.1" xmlns="http://www.w3.org/2000/svg" width="18" height="18" viewBox="0 0 18 18">
<title>clipboard-pulse-outline</title>
<path fill="#4d5ee0" d="M14.25 2.25h-3.135c-0.315-0.87-1.14-1.5-2.115-1.5s-1.8 0.63-2.115 1.5h-3.135c-0.828 0-1.5 0.672-1.5 1.5v0 10.5c0 0.828 0.672 1.5 1.5 1.5v0h10.5c0.828 0 1.5-0.672 1.5-1.5v0-10.5c0-0.828-0.672-1.5-1.5-1.5v0zM9 2.25c0.414 0 0.75 0.336 0.75 0.75v0c0 0.414-0.336 0.75-0.75 0.75v0c-0.414 0-0.75-0.336-0.75-0.75v0c0-0.414 0.336-0.75 0.75-0.75v0zM3.75 11.25h2.332l1.133-2.138 0.57 4.328 2.767-3.532 1.365 1.342h2.332v3h-10.5v-3zM14.25 10.095h-1.853l-1.95-1.95-1.867 2.393-0.705-5.228-2.498 4.785h-1.628v-6.345h1.5v0.75h7.5v-0.75h1.5v6.345z"></path>
</svg>
