<!-- Generated by IcoMoon.io -->
<svg version="1.1" xmlns="http://www.w3.org/2000/svg" width="18" height="18" viewBox="0 0 18 18">
<title>clipboard-multiple-outline</title>
<path fill="#4d5ee0" d="M3 5.25v10.5h10.5v1.5h-10.5c-0.825 0-1.5-0.675-1.5-1.5v-10.5h1.5zM15 2.25c0.825 0 1.5 0.675 1.5 1.5v9c0 0.825-0.675 1.5-1.5 1.5h-9c-0.825 0-1.5-0.675-1.5-1.5v-9c0-0.825 0.675-1.5 1.5-1.5h2.385c0.315-0.87 1.14-1.5 2.115-1.5s1.8 0.63 2.115 1.5h2.385zM10.5 2.25c-0.413 0-0.75 0.337-0.75 0.75s0.338 0.75 0.75 0.75c0.413 0 0.75-0.337 0.75-0.75s-0.338-0.75-0.75-0.75zM7.5 5.25v-1.5h-1.5v9h9v-9h-1.5v1.5h-6z"></path>
</svg>
