<!-- Generated by IcoMoon.io -->
<svg version="1.1" xmlns="http://www.w3.org/2000/svg" width="18" height="18" viewBox="0 0 18 18">
<title>clock-out</title>
<path fill="#4d5ee0" d="M13.5 0.75l1.35 1.342-3.007 3 1.065 1.065 3-3 1.342 1.342v-3.75zM9 6c-2.895 0-5.25 2.348-5.25 5.25 0 2.899 2.351 5.25 5.25 5.25v0c2.895 0 5.25-2.348 5.25-5.25 0-2.899-2.351-5.25-5.25-5.25v0zM9 7.613c2.002 0 3.637 1.628 3.637 3.637 0 2.009-1.629 3.637-3.637 3.637v0c-2.010 0-3.637-1.628-3.637-3.637 0-2.009 1.629-3.637 3.637-3.637v0zM8.25 9v2.768l2.393 1.38 0.563-0.975-1.83-1.058v-2.115z"></path>
</svg>
