<!-- Generated by IcoMoon.io -->
<svg version="1.1" xmlns="http://www.w3.org/2000/svg" width="18" height="18" viewBox="0 0 18 18">
<title>close-box-multiple</title>
<path fill="#4d5ee0" d="M3 15h10.5v1.5h-10.5c-0.825 0-1.5-0.667-1.5-1.5v-10.5h1.5v10.5zM15.165 1.5h-9.33c-0.735 0-1.335 0.6-1.335 1.335v9.33c0 0.735 0.6 1.335 1.335 1.335h9.33c0.735 0 1.335-0.6 1.335-1.335v-9.33c0-0.735-0.6-1.335-1.335-1.335zM14.25 10.2l-1.050 1.050-2.7-2.7-2.7 2.7-1.050-1.050 2.7-2.7-2.7-2.7 1.050-1.050 2.7 2.7 2.7-2.7 1.050 1.050-2.7 2.7 2.7 2.7z"></path>
</svg>
