<!-- Generated by IcoMoon.io -->
<svg version="1.1" xmlns="http://www.w3.org/2000/svg" width="18" height="18" viewBox="0 0 18 18">
<title>cloud-off-outline</title>
<path fill="#4d5ee0" d="M5.797 7.5l6 6h-7.298c-1.657 0-3-1.343-3-3v0c0-1.657 1.343-3 3-3v0zM2.25 3.952l2.062 2.048c-2.393 0.112-4.312 2.078-4.312 4.5 0 2.485 2.015 4.5 4.5 4.5v0h8.797l1.5 1.5 0.953-0.953-12.547-12.547zM14.513 7.523c-0.51-2.58-2.782-4.522-5.513-4.522-1.125 0-2.138 0.323-3 0.878l1.088 1.095c0.57-0.3 1.223-0.473 1.913-0.473 2.278 0 4.125 1.847 4.125 4.125v0 0.375h1.125c1.243 0 2.25 1.007 2.25 2.25v0c0 0.847-0.48 1.583-1.17 1.965l1.088 1.088c0.953-0.683 1.583-1.792 1.583-3.052 0-1.98-1.538-3.585-3.488-3.727z"></path>
</svg>
