<!-- Generated by IcoMoon.io -->
<svg version="1.1" xmlns="http://www.w3.org/2000/svg" width="18" height="18" viewBox="0 0 18 18">
<title>codepen</title>
<path fill="#4d5ee0" d="M16.306 6.144l-6.941-4.627c-0.237-0.146-0.49-0.147-0.729 0l-6.941 4.627c-0.178 0.119-0.288 0.331-0.288 0.542v4.627c0 0.212 0.11 0.424 0.288 0.542l6.941 4.628c0.237 0.146 0.49 0.147 0.729 0l6.941-4.628c0.178-0.119 0.288-0.331 0.288-0.542v-4.627c-0-0.212-0.11-0.424-0.288-0.542zM9.653 3.279l5.111 3.407-2.28 1.526-2.831-1.89v-3.043zM8.347 3.279v3.043l-2.831 1.89-2.28-1.526 5.111-3.407zM2.711 7.906l1.636 1.093-1.636 1.093v-2.187zM8.347 14.72l-5.111-3.407 2.28-1.526 2.831 1.89v3.043zM9 10.542l-2.305-1.542 2.305-1.542 2.305 1.542-2.305 1.542zM9.653 14.72v-3.043l2.831-1.89 2.28 1.526-5.111 3.407zM15.289 10.093l-1.636-1.093 1.636-1.093v2.187z"></path>
</svg>
