<!-- Generated by IcoMoon.io -->
<svg version="1.1" xmlns="http://www.w3.org/2000/svg" width="18" height="18" viewBox="0 0 18 18">
<title>cog-off</title>
<path fill="#4d5ee0" d="M16.59 16.095l-14.79-14.797-0.96 0.953 2.16 2.152-1.245 2.145c-0.098 0.165-0.053 0.368 0.090 0.48l1.583 1.223c-0.030 0.255-0.053 0.503-0.053 0.75s0.023 0.487 0.053 0.728l-1.583 1.245c-0.143 0.112-0.188 0.315-0.090 0.48l1.5 2.595c0.090 0.165 0.292 0.225 0.458 0.165l1.868-0.757c0.39 0.3 0.795 0.555 1.268 0.742l0.278 1.988c0.030 0.18 0.188 0.315 0.375 0.315h3c0.188 0 0.345-0.135 0.375-0.315l0.278-1.988c0.383-0.158 0.72-0.36 1.043-0.593l3.443 3.443 0.953-0.953zM9 11.625c-1.448 0-2.625-1.178-2.625-2.625 0-0.375 0.090-0.69 0.217-0.998l3.405 3.405c-0.307 0.135-0.622 0.217-0.998 0.217zM8.805 6.398l-2.385-2.385c0.143-0.075 0.278-0.15 0.428-0.21l0.278-1.988c0.030-0.18 0.188-0.315 0.375-0.315h3c0.188 0 0.345 0.135 0.375 0.315l0.278 1.988c0.473 0.188 0.877 0.442 1.268 0.735l1.867-0.75c0.165-0.067 0.368 0 0.458 0.165l1.5 2.595c0.090 0.165 0.053 0.368-0.090 0.48l-1.583 1.223c0.030 0.255 0.053 0.503 0.053 0.75s-0.023 0.487-0.053 0.728l1.583 1.245c0.143 0.112 0.18 0.315 0.090 0.48l-0.87 1.515-3.772-3.772c0.022-0.060 0.022-0.127 0.022-0.195 0-1.448-1.178-2.625-2.625-2.625-0.067 0-0.127 0-0.195 0.022z"></path>
</svg>
