<!-- Generated by IcoMoon.io -->
<svg version="1.1" xmlns="http://www.w3.org/2000/svg" width="18" height="18" viewBox="0 0 18 18">
<title>cog-box</title>
<path fill="#4d5ee0" d="M12.938 9c0 0.172-0.015 0.345-0.037 0.51l1.11 0.87c0.098 0.082 0.127 0.217 0.060 0.338l-1.050 1.815c-0.068 0.113-0.203 0.158-0.323 0.113l-1.305-0.525c-0.27 0.21-0.57 0.383-0.892 0.518l-0.188 1.387c-0.023 0.127-0.135 0.225-0.262 0.225h-2.1c-0.127 0-0.24-0.098-0.262-0.225l-0.188-1.387c-0.33-0.135-0.622-0.307-0.892-0.518l-1.305 0.525c-0.12 0.045-0.255 0-0.323-0.113l-1.050-1.815c-0.067-0.12-0.037-0.255 0.060-0.338l1.11-0.87c-0.022-0.165-0.037-0.338-0.037-0.51s0.015-0.345 0.037-0.51l-1.11-0.87c-0.098-0.082-0.127-0.225-0.060-0.338l1.050-1.815c0.067-0.12 0.202-0.165 0.323-0.12l1.305 0.532c0.27-0.21 0.563-0.39 0.892-0.518l0.188-1.395c0.022-0.12 0.135-0.217 0.262-0.217h2.1c0.127 0 0.24 0.098 0.262 0.217l0.188 1.395c0.323 0.127 0.622 0.307 0.892 0.518l1.305-0.532c0.12-0.045 0.255 0 0.323 0.12l1.050 1.815c0.068 0.112 0.037 0.255-0.060 0.338l-1.11 0.87c0.022 0.165 0.037 0.338 0.037 0.51zM14.25 2.25h-10.5c-0.833 0-1.5 0.667-1.5 1.5v10.5c0 0.828 0.672 1.5 1.5 1.5v0h10.5c0.828 0 1.5-0.672 1.5-1.5v0-10.5c0-0.833-0.675-1.5-1.5-1.5zM9 7.5c-0.832 0-1.5 0.667-1.5 1.5 0 0.828 0.672 1.5 1.5 1.5v0c0.828 0 1.5-0.672 1.5-1.5v0c0-0.832-0.675-1.5-1.5-1.5z"></path>
</svg>
