<!-- Generated by IcoMoon.io -->
<svg version="1.1" xmlns="http://www.w3.org/2000/svg" width="18" height="18" viewBox="0 0 18 18">
<title>cog</title>
<path fill="#4d5ee0" d="M9 11.625c-1.45 0-2.625-1.175-2.625-2.625v0c0-1.45 1.175-2.625 2.625-2.625v0c1.45 0 2.625 1.175 2.625 2.625v0c0 1.45-1.175 2.625-2.625 2.625v0zM14.572 9.728c0.030-0.24 0.053-0.48 0.053-0.728s-0.022-0.495-0.053-0.75l1.583-1.223c0.143-0.112 0.18-0.315 0.090-0.48l-1.5-2.595c-0.090-0.165-0.293-0.233-0.458-0.165l-1.867 0.75c-0.39-0.292-0.795-0.548-1.268-0.735l-0.278-1.988c-0.030-0.18-0.188-0.315-0.375-0.315h-3c-0.188 0-0.345 0.135-0.375 0.315l-0.278 1.988c-0.473 0.188-0.878 0.442-1.268 0.735l-1.868-0.75c-0.165-0.067-0.368 0-0.458 0.165l-1.5 2.595c-0.098 0.165-0.053 0.368 0.090 0.48l1.583 1.223c-0.030 0.255-0.053 0.503-0.053 0.75s0.022 0.487 0.053 0.728l-1.583 1.245c-0.143 0.112-0.188 0.315-0.090 0.48l1.5 2.595c0.090 0.165 0.292 0.225 0.458 0.165l1.868-0.757c0.39 0.3 0.795 0.555 1.268 0.742l0.278 1.988c0.030 0.18 0.188 0.315 0.375 0.315h3c0.188 0 0.345-0.135 0.375-0.315l0.278-1.988c0.473-0.195 0.877-0.442 1.268-0.742l1.867 0.757c0.165 0.060 0.368 0 0.458-0.165l1.5-2.595c0.090-0.165 0.053-0.368-0.090-0.48l-1.583-1.245z"></path>
</svg>
