<!-- Generated by IcoMoon.io -->
<svg version="1.1" xmlns="http://www.w3.org/2000/svg" width="18" height="18" viewBox="0 0 18 18">
<title>collapse-all-outline</title>
<path fill="#4d5ee0" d="M3 1.5c-0.828 0-1.5 0.672-1.5 1.5v0 7.5h1.5v-7.5h7.5v-1.5h-7.5zM6 4.5c-0.828 0-1.5 0.672-1.5 1.5v0 7.5h1.5v-7.5h7.5v-1.5h-7.5zM15 9v6h-6v-6h6zM15 7.5h-6c-0.828 0-1.5 0.672-1.5 1.5v0 6c0 0.828 0.672 1.5 1.5 1.5v0h6c0.828 0 1.5-0.672 1.5-1.5v0-6c0-0.828-0.672-1.5-1.5-1.5v0zM14.25 12.75h-4.5v-1.5h4.5v1.5z"></path>
</svg>
