<!-- Generated by IcoMoon.io -->
<svg version="1.1" xmlns="http://www.w3.org/2000/svg" width="18" height="18" viewBox="0 0 18 18">
<title>cube</title>
<path fill="#4d5ee0" d="M15.75 12.375c0 0.285-0.158 0.532-0.397 0.66l-5.925 3.33c-0.12 0.090-0.27 0.135-0.428 0.135s-0.307-0.045-0.427-0.135l-5.925-3.33c-0.24-0.127-0.397-0.375-0.397-0.66v-6.75c0-0.285 0.158-0.532 0.397-0.66l5.925-3.33c0.12-0.090 0.27-0.135 0.427-0.135s0.307 0.045 0.428 0.135l5.925 3.33c0.24 0.127 0.397 0.375 0.397 0.66v6.75zM9 3.113l-4.47 2.512 4.47 2.512 4.47-2.512-4.47-2.512z"></path>
</svg>
