<!-- Generated by IcoMoon.io -->
<svg version="1.1" xmlns="http://www.w3.org/2000/svg" width="18" height="18" viewBox="0 0 18 18">
<title>cubes</title>
<path fill="#4d5ee0" d="M8.659 0.071l-4.082 2.080c-0.128 0.063-0.237 0.17-0.3 0.313s-0.076 0.23-0.075 0.314v4.762l-3.705 1.892c-0.128 0.063-0.237 0.17-0.3 0.313s-0.076 0.23-0.075 0.314v5.188c0 0.258 0.144 0.496 0.37 0.611l4.072 2.069c0.093 0.050 0.199 0.079 0.311 0.079s0.217-0.029 0.311-0.079l3.776-1.924 3.776 1.924c0.093 0.050 0.199 0.079 0.311 0.079s0.217-0.029 0.311-0.079l4.072-2.069c0.227-0.115 0.37-0.354 0.37-0.611v-5.188c0.001-0.099-0.019-0.2-0.062-0.294-0.033-0.073-0.078-0.139-0.134-0.196s-0.114-0.1-0.18-0.132h-0.002l-3.705-1.892v-4.762c0.001-0.099-0.019-0.2-0.062-0.294-0.033-0.073-0.078-0.139-0.134-0.196s-0.114-0.1-0.18-0.132h-0.002l-4.072-2.080c-0.189-0.096-0.409-0.096-0.598 0zM8.958 1.443l2.929 1.487-2.929 1.487-2.929-1.487zM4.876 8.722l2.929 1.487-2.929 1.487-2.929-1.487zM13.040 8.722l2.929 1.487-2.929 1.487-2.929-1.487z"></path>
</svg>
