<!-- Generated by IcoMoon.io -->
<svg version="1.1" xmlns="http://www.w3.org/2000/svg" width="18" height="18" viewBox="0 0 18 18">
<title>database-edit</title>
<path fill="#4d5ee0" d="M3 10.5v2.25c0 1.5 2.287 2.79 5.25 3v-2.168l0.098-0.082c-3.007-0.18-5.347-1.455-5.347-3zM9 9.75c-3.315 0-6-1.342-6-3v2.25c0 1.657 2.685 3 6 3 0.293 0 0.577 0 0.87 0l2.88-2.91c-1.2 0.45-2.467 0.66-3.75 0.66zM9 2.25c-3.315 0-6 1.342-6 3s2.685 3 6 3c3.315 0 6-1.342 6-3s-2.685-3-6-3zM15.75 8.348c-0.112 0-0.217 0.045-0.293 0.127l-0.75 0.75 1.538 1.5 0.75-0.75c0.158-0.15 0.165-0.405 0-0.577l-0.93-0.923c-0.075-0.082-0.18-0.127-0.285-0.127zM14.28 9.66l-4.53 4.545v1.545h1.545l4.545-4.553-1.56-1.538z"></path>
</svg>
