<!-- Generated by IcoMoon.io -->
<svg version="1.1" xmlns="http://www.w3.org/2000/svg" width="18" height="18" viewBox="0 0 18 18">
<title>docker</title>
<path fill="#4d5ee0" d="M16.357 7.687c-0.045-0.030-0.42-0.323-1.23-0.323-0.21 0-0.42 0.022-0.63 0.060-0.158-1.050-1.035-1.583-1.072-1.605l-0.217-0.127-0.135 0.202c-0.18 0.27-0.323 0.577-0.382 0.892-0.15 0.6-0.060 1.17 0.248 1.657-0.368 0.21-0.967 0.262-1.095 0.262h-9.877c-0.255 0-0.465 0.21-0.465 0.473 0 0.863 0.135 1.725 0.435 2.535 0.337 0.892 0.847 1.552 1.5 1.957 0.735 0.45 1.943 0.705 3.315 0.705 0.593 0 1.207-0.053 1.815-0.165 0.84-0.15 1.65-0.442 2.393-0.87 0.615-0.352 1.162-0.802 1.628-1.342 0.787-0.877 1.252-1.875 1.59-2.737h0.143c0.855 0 1.387-0.345 1.68-0.638 0.195-0.18 0.337-0.397 0.442-0.652l0.060-0.18-0.143-0.105zM2.888 8.43h1.32c0.060 0 0.12-0.053 0.12-0.12v-1.185c0-0.060-0.053-0.12-0.12-0.12h-1.32c-0.068 0-0.12 0.053-0.12 0.12v1.185c0.008 0.067 0.053 0.12 0.12 0.12zM4.71 8.43h1.32c0.060 0 0.12-0.053 0.12-0.12v-1.185c0-0.060-0.053-0.12-0.12-0.12h-1.32c-0.067 0-0.12 0.053-0.12 0.12v1.185c0.008 0.067 0.053 0.12 0.12 0.12zM6.562 8.43h1.313c0.075 0 0.127-0.053 0.127-0.12v-1.185c0-0.060-0.045-0.12-0.127-0.12h-1.313c-0.060 0-0.112 0.053-0.112 0.12v1.185c0 0.067 0.045 0.12 0.112 0.12zM8.393 8.43h1.328c0.060 0 0.112-0.053 0.112-0.12v-1.185c0-0.060-0.045-0.12-0.112-0.12h-1.327c-0.060 0-0.113 0.053-0.113 0.12v1.185c0 0.067 0.053 0.12 0.113 0.12zM4.71 6.75h1.32c0.060 0 0.12-0.067 0.12-0.135v-1.178c0-0.067-0.053-0.12-0.12-0.12h-1.32c-0.067 0-0.12 0.045-0.12 0.12v1.178c0.008 0.067 0.053 0.135 0.12 0.135zM6.562 6.75h1.313c0.075 0 0.127-0.067 0.127-0.135v-1.178c0-0.067-0.045-0.12-0.127-0.12h-1.313c-0.060 0-0.112 0.045-0.112 0.12v1.178c0 0.067 0.045 0.135 0.112 0.135zM8.393 6.75h1.328c0.060 0 0.112-0.067 0.112-0.135v-1.178c0-0.067-0.053-0.12-0.112-0.12h-1.327c-0.060 0-0.113 0.045-0.113 0.12v1.178c0 0.067 0.053 0.135 0.113 0.135zM8.393 5.040h1.328c0.060 0 0.112-0.053 0.112-0.12v-1.17c0-0.075-0.053-0.127-0.112-0.127h-1.327c-0.060 0-0.113 0.045-0.113 0.127v1.17c0 0.060 0.053 0.12 0.113 0.12zM10.237 8.43h1.32c0.067 0 0.12-0.053 0.12-0.12v-1.185c0-0.060-0.053-0.12-0.12-0.12h-1.32c-0.060 0-0.112 0.053-0.112 0.12v1.185c0 0.067 0.053 0.12 0.112 0.12z"></path>
</svg>
