<!-- Generated by IcoMoon.io -->
<svg version="1.1" xmlns="http://www.w3.org/2000/svg" width="18" height="18" viewBox="0 0 18 18">
<title>drag-horizontal</title>
<path fill="#4d5ee0" d="M2.25 11.25v-1.5h1.5v1.5h-1.5zM2.25 8.25v-1.5h1.5v1.5h-1.5zM5.25 11.25v-1.5h1.5v1.5h-1.5zM5.25 8.25v-1.5h1.5v1.5h-1.5zM8.25 11.25v-1.5h1.5v1.5h-1.5zM8.25 8.25v-1.5h1.5v1.5h-1.5zM11.25 11.25v-1.5h1.5v1.5h-1.5zM11.25 8.25v-1.5h1.5v1.5h-1.5zM14.25 11.25v-1.5h1.5v1.5h-1.5zM14.25 8.25v-1.5h1.5v1.5h-1.5z"></path>
</svg>
