<!-- Generated by IcoMoon.io -->
<svg version="1.1" xmlns="http://www.w3.org/2000/svg" width="18" height="18" viewBox="0 0 18 18">
<title>fast-forward-10</title>
<path fill="#4d5ee0" d="M7.5 9v7.5h-1.5v-6h-1.5v-1.5h3zM13.5 10.5v4.5c0 0.833-0.667 1.5-1.5 1.5h-1.5c-0.828 0-1.5-0.672-1.5-1.5v0-4.5c0-0.828 0.672-1.5 1.5-1.5v0h1.5c0.832 0 1.5 0.675 1.5 1.5zM10.5 10.5v4.5h1.5v-4.5h-1.5zM8.625 2.25c1.988 0 3.788 0.75 5.175 1.95l1.95-1.95v5.25h-5.25l1.965-1.965c-1.043-0.87-2.37-1.41-3.84-1.41-2.655 0-4.913 1.732-5.7 4.125l-1.777-0.585c1.043-3.142 3.99-5.415 7.478-5.415z"></path>
</svg>
