<!-- Generated by IcoMoon.io -->
<svg version="1.1" xmlns="http://www.w3.org/2000/svg" width="18" height="18" viewBox="0 0 18 18">
<title>file-find</title>
<path fill="#4d5ee0" d="M6.75 9.75c0 1.243 1.007 2.25 2.25 2.25v0c1.243 0 2.25-1.007 2.25-2.25v0c0-1.243-1.007-2.25-2.25-2.25v0c-1.243 0-2.25 1.007-2.25 2.25v0zM15 14.693v-8.693l-4.5-4.5h-6c-0.828 0-1.5 0.672-1.5 1.5v0 12c0 0.828 0.672 1.5 1.5 1.5v0h9c0.338 0 0.638-0.113 0.892-0.3l-3.322-3.322c-0.6 0.39-1.32 0.622-2.070 0.622-2.071 0-3.75-1.679-3.75-3.75v0c0-2.071 1.679-3.75 3.75-3.75v0c2.071 0 3.75 1.679 3.75 3.75v0c0 0.75-0.233 1.47-0.622 2.062l2.872 2.88z"></path>
</svg>
