<!-- Generated by IcoMoon.io -->
<svg version="1.1" xmlns="http://www.w3.org/2000/svg" width="18" height="18" viewBox="0 0 18 18">
<title>firefox</title>
<path fill="#4d5ee0" d="M6.952 5.955c0 0 0 0 0 0zM5.138 5.055c0.008 0 0.008 0 0 0zM15.96 6.45c-0.323-0.788-0.99-1.635-1.508-1.905 0.42 0.833 0.667 1.665 0.765 2.28v0.015c-0.847-2.115-2.287-2.97-3.465-4.83-0.060-0.090-0.127-0.188-0.18-0.285-0.030-0.053-0.053-0.105-0.082-0.158-0.045-0.098-0.090-0.195-0.113-0.3 0-0.008-0.008-0.015-0.015-0.015h-0.022c-1.665 0.975-2.362 2.692-2.535 3.78-0.518 0.030-1.027 0.157-1.493 0.383-0.090 0.037-0.127 0.143-0.098 0.233 0.037 0.105 0.157 0.157 0.255 0.112 0.405-0.195 0.855-0.307 1.305-0.338h0.037c0.060-0.008 0.127-0.008 0.188-0.008 0.375-0.008 0.728 0.045 1.080 0.15l0.045 0.015c0.075 0.015 0.127 0.045 0.188 0.045 0.037 0.030 0.082 0.045 0.12 0.060l0.105 0.045c0.053 0.022 0.105 0.045 0.15 0.067 0.022 0.015 0.045 0.022 0.068 0.037 0.053 0.030 0.12 0.053 0.15 0.082 0.030 0.015 0.060 0.037 0.090 0.053 0.548 0.338 1.005 0.802 1.313 1.358-0.397-0.278-1.117-0.555-1.808-0.435 2.7 1.358 1.972 6-1.77 5.82-0.33-0.008-0.66-0.075-0.975-0.188-0.075-0.022-0.15-0.053-0.217-0.090-0.037-0.015-0.090-0.037-0.127-0.060-0.923-0.473-1.68-1.365-1.785-2.452 0 0 0.375-1.297 2.498-1.297 0.233 0 0.877-0.645 0.9-0.825 0-0.067-1.305-0.585-1.815-1.088-0.278-0.27-0.405-0.397-0.518-0.495-0.060-0.053-0.127-0.098-0.195-0.143-0.172-0.6-0.18-1.237-0.022-1.837-0.773 0.352-1.372 0.908-1.808 1.387v0c-0.3-0.375-0.278-1.612-0.262-1.875-0.008 0-0.225 0.12-0.248 0.135-0.262 0.188-0.51 0.397-0.735 0.615-0.262 0.278-0.495 0.555-0.705 0.855-0.465 0.683-0.84 1.462-1.005 2.28 0 0.008-0.075 0.307-0.127 0.69l-0.023 0.172c-0.015 0.127-0.030 0.24-0.060 0.435v0.307c0 4.148 3.375 7.507 7.5 7.507 3.727 0 6.81-2.692 7.41-6.247 0.015-0.082 0.023-0.18 0.037-0.278 0.15-1.29-0.015-2.64-0.487-3.772z"></path>
</svg>
