<!-- Generated by IcoMoon.io -->
<svg version="1.1" xmlns="http://www.w3.org/2000/svg" width="18" height="18" viewBox="0 0 18 18">
<title>flip-to-back</title>
<path fill="#4d5ee0" d="M11.25 12.75h1.5v-1.5h-1.5zM11.25 3.75h1.5v-1.5h-1.5zM3.75 5.25h-1.5v9c0 0.828 0.672 1.5 1.5 1.5v0h9v-1.5h-9zM14.25 12.75c0.828 0 1.5-0.672 1.5-1.5v0h-1.5zM14.25 6.75h1.5v-1.5h-1.5zM14.25 9.75h1.5v-1.5h-1.5zM6.75 12.75v-1.5h-1.5c0 0.828 0.672 1.5 1.5 1.5v0zM9.75 2.25h-1.5v1.5h1.5zM14.25 2.25v1.5h1.5c0-0.833-0.675-1.5-1.5-1.5zM9.75 11.25h-1.5v1.5h1.5zM6.75 2.25c-0.833 0-1.5 0.667-1.5 1.5h1.5zM6.75 8.25h-1.5v1.5h1.5zM6.75 5.25h-1.5v1.5h1.5v-1.5z"></path>
</svg>
