<!-- Generated by IcoMoon.io -->
<svg version="1.1" xmlns="http://www.w3.org/2000/svg" width="18" height="18" viewBox="0 0 18 18">
<title>flip-horizontal</title>
<path fill="#4d5ee0" d="M11.25 15.75h1.5v-1.5h-1.5zM14.25 6.75h1.5v-1.5h-1.5zM2.25 3.75v10.5c0 0.825 0.675 1.5 1.5 1.5h3v-1.5h-3v-10.5h3v-1.5h-3c-0.825 0-1.5 0.675-1.5 1.5zM14.25 2.25v1.5h1.5c0-0.825-0.675-1.5-1.5-1.5zM8.25 17.25h1.5v-16.5h-1.5zM14.25 12.75h1.5v-1.5h-1.5zM11.25 3.75h1.5v-1.5h-1.5zM14.25 9.75h1.5v-1.5h-1.5zM14.25 15.75c0.825 0 1.5-0.675 1.5-1.5h-1.5z"></path>
</svg>
