<!-- Generated by IcoMoon.io -->
<svg version="1.1" xmlns="http://www.w3.org/2000/svg" width="18" height="18" viewBox="0 0 18 18">
<title>flip-vertical</title>
<path fill="#4d5ee0" d="M2.25 11.25v1.5h1.5v-1.5zM11.25 14.25v1.5h1.5v-1.5zM14.25 2.25h-10.5c-0.825 0-1.5 0.675-1.5 1.5v3h1.5v-3h10.5v3h1.5v-3c0-0.825-0.675-1.5-1.5-1.5zM15.75 14.25h-1.5v1.5c0.825 0 1.5-0.675 1.5-1.5zM0.75 8.25v1.5h16.5v-1.5zM5.25 14.25v1.5h1.5v-1.5zM14.25 11.25v1.5h1.5v-1.5zM8.25 14.25v1.5h1.5v-1.5zM2.25 14.25c0 0.825 0.675 1.5 1.5 1.5v-1.5z"></path>
</svg>
