<!-- Generated by IcoMoon.io -->
<svg version="1.1" xmlns="http://www.w3.org/2000/svg" width="18" height="18" viewBox="0 0 18 18">
<title>gauge-full</title>
<path fill="#4d5ee0" d="M9 1.5c-4.142 0-7.5 3.358-7.5 7.5v0c0 4.142 3.358 7.5 7.5 7.5v0c4.142 0 7.5-3.358 7.5-7.5v0c0-4.142-3.358-7.5-7.5-7.5v0zM9 3c3.314 0 6 2.686 6 6v0c0 1.8-0.75 3.375-2.025 4.5-1.050-0.975-2.475-1.5-3.975-1.5s-2.85 0.525-3.975 1.5c-1.275-1.125-2.025-2.7-2.025-4.5 0-3.314 2.686-6 6-6v0zM7.5 4.5c-0.414 0-0.75 0.336-0.75 0.75v0c0 0.414 0.336 0.75 0.75 0.75v0c0.414 0 0.75-0.336 0.75-0.75v0c0-0.414-0.336-0.75-0.75-0.75v0zM10.5 4.5c-0.414 0-0.75 0.336-0.75 0.75v0c0 0.414 0.336 0.75 0.75 0.75v0c0.414 0 0.75-0.336 0.75-0.75v0c0-0.414-0.336-0.75-0.75-0.75v0zM12.817 6.705c-0.098 0-0.188 0.022-0.292 0.045l-2.602 1.072c-0.42-0.323-0.99-0.413-1.485-0.21-0.765 0.307-1.14 1.185-0.825 1.95 0.307 0.765 1.185 1.14 1.95 0.825 0.495-0.195 0.847-0.638 0.937-1.178l0.172-0.075 2.43-0.982c0.397-0.157 0.57-0.593 0.42-0.982-0.12-0.285-0.397-0.473-0.705-0.465zM5.25 6.75c-0.414 0-0.75 0.336-0.75 0.75v0c0 0.414 0.336 0.75 0.75 0.75v0c0.414 0 0.75-0.336 0.75-0.75v0c0-0.414-0.336-0.75-0.75-0.75v0z"></path>
</svg>
