<!-- Generated by IcoMoon.io -->
<svg version="1.1" xmlns="http://www.w3.org/2000/svg" width="18" height="18" viewBox="0 0 18 18">
<title>gauge</title>
<path fill="#4d5ee0" d="M9 1.5c-4.142 0-7.5 3.358-7.5 7.5v0c0 4.142 3.358 7.5 7.5 7.5v0c4.142 0 7.5-3.358 7.5-7.5v0c0-4.142-3.358-7.5-7.5-7.5v0zM9 3c3.314 0 6 2.686 6 6v0c0 1.8-0.75 3.375-2.025 4.5-1.050-0.975-2.475-1.5-3.975-1.5s-2.85 0.525-3.975 1.5c-1.275-1.125-2.025-2.7-2.025-4.5 0-3.314 2.686-6 6-6v0zM10.5 4.418c-0.285 0.008-0.555 0.195-0.675 0.487l-0.968 2.422-0.075 0.172c-0.532 0.098-0.975 0.45-1.178 0.945-0.307 0.773 0.067 1.643 0.84 1.95s1.643-0.068 1.95-0.84c0.195-0.495 0.105-1.065-0.217-1.485l0.075-0.195 0.967-2.407 0.008-0.022c0.15-0.383-0.037-0.818-0.42-0.975-0.098-0.037-0.195-0.053-0.307-0.053zM7.5 4.5c-0.414 0-0.75 0.336-0.75 0.75v0c0 0.414 0.336 0.75 0.75 0.75v0c0.414 0 0.75-0.336 0.75-0.75v0c0-0.414-0.336-0.75-0.75-0.75v0zM5.25 6.75c-0.414 0-0.75 0.336-0.75 0.75v0c0 0.414 0.336 0.75 0.75 0.75v0c0.414 0 0.75-0.336 0.75-0.75v0c0-0.414-0.336-0.75-0.75-0.75v0zM12.75 6.75c-0.414 0-0.75 0.336-0.75 0.75v0c0 0.414 0.336 0.75 0.75 0.75v0c0.414 0 0.75-0.336 0.75-0.75v0c0-0.414-0.336-0.75-0.75-0.75v0z"></path>
</svg>
