<!-- Generated by IcoMoon.io -->
<svg version="1.1" xmlns="http://www.w3.org/2000/svg" width="18" height="18" viewBox="0 0 18 18">
<title>gauge-low</title>
<path fill="#4d5ee0" d="M9 1.5c4.142 0 7.5 3.358 7.5 7.5v0c0 4.142-3.358 7.5-7.5 7.5v0c-4.142 0-7.5-3.358-7.5-7.5v0c0-4.142 3.358-7.5 7.5-7.5v0zM9 3c-3.314 0-6 2.686-6 6v0c0 1.8 0.75 3.375 2.025 4.5 1.050-0.975 2.475-1.5 3.975-1.5s2.85 0.525 3.975 1.5c1.275-1.125 2.025-2.7 2.025-4.5 0-3.314-2.686-6-6-6v0zM7.5 4.418c0.285 0.008 0.555 0.195 0.675 0.487l0.968 2.422 0.075 0.172c0.532 0.098 0.975 0.45 1.178 0.945 0.307 0.773-0.068 1.643-0.84 1.95s-1.642-0.068-1.95-0.84c-0.195-0.495-0.105-1.065 0.217-1.485l-0.075-0.195-0.968-2.407-0.008-0.022c-0.15-0.383 0.037-0.818 0.42-0.975 0.098-0.037 0.195-0.053 0.307-0.053v0zM10.5 4.5c0.414 0 0.75 0.336 0.75 0.75v0c0 0.414-0.336 0.75-0.75 0.75v0c-0.414 0-0.75-0.336-0.75-0.75v0c0-0.414 0.336-0.75 0.75-0.75v0zM12.75 6.75c0.414 0 0.75 0.336 0.75 0.75v0c0 0.414-0.336 0.75-0.75 0.75v0c-0.414 0-0.75-0.336-0.75-0.75v0c0-0.414 0.336-0.75 0.75-0.75v0zM5.25 6.75c0.414 0 0.75 0.336 0.75 0.75v0c0 0.414-0.336 0.75-0.75 0.75v0c-0.414 0-0.75-0.336-0.75-0.75v0c0-0.414 0.336-0.75 0.75-0.75v0z"></path>
</svg>
