<!-- Generated by IcoMoon.io -->
<svg version="1.1" xmlns="http://www.w3.org/2000/svg" width="18" height="18" viewBox="0 0 18 18">
<title>github</title>
<path fill="#4d5ee0" d="M9 1.5c-4.142 0-7.5 3.358-7.5 7.5v0c0 3.315 2.152 6.128 5.13 7.125 0.375 0.060 0.495-0.172 0.495-0.375 0-0.172 0-0.645 0-1.268-2.078 0.45-2.52-1.005-2.52-1.005-0.345-0.87-0.833-1.103-0.833-1.103-0.683-0.465 0.053-0.45 0.053-0.45 0.75 0.053 1.148 0.773 1.148 0.773 0.652 1.14 1.755 0.802 2.182 0.622 0.067-0.487 0.262-0.818 0.473-1.005-1.665-0.188-3.412-0.833-3.412-3.69 0-0.833 0.285-1.5 0.773-2.033-0.075-0.188-0.337-0.968 0.075-1.98 0 0 0.63-0.202 2.062 0.765 0.593-0.165 1.238-0.247 1.875-0.247s1.283 0.082 1.875 0.247c1.432-0.967 2.062-0.765 2.062-0.765 0.413 1.013 0.15 1.792 0.075 1.98 0.487 0.532 0.773 1.2 0.773 2.033 0 2.865-1.755 3.495-3.428 3.682 0.27 0.233 0.518 0.69 0.518 1.387 0 1.005 0 1.815 0 2.055 0 0.203 0.12 0.442 0.503 0.375 2.978-1.005 5.122-3.81 5.122-7.125 0-4.142-3.358-7.5-7.5-7.5v0z"></path>
</svg>
