<!-- Generated by IcoMoon.io -->
<svg version="1.1" xmlns="http://www.w3.org/2000/svg" width="18" height="18" viewBox="0 0 18 18">
<title>hand-right</title>
<path fill="#4d5ee0" d="M15.75 4.935v9.067c0 1.379-1.118 2.498-2.498 2.498h-4.567c-0.675 0-1.313-0.27-1.778-0.75l-4.905-4.98c0 0 0.788-0.773 0.81-0.78 0.135-0.12 0.307-0.188 0.495-0.188 0.135 0 0.262 0.037 0.375 0.105 0.022 0.008 2.692 1.538 2.692 1.538v-7.447c0-0.518 0.42-0.937 0.937-0.937v0c0.518 0 0.937 0.42 0.937 0.937v0 4.38h0.622v-5.94c0-0.518 0.42-0.937 0.937-0.937v0c0.525 0 0.937 0.42 0.937 0.937v5.94h0.63v-5.318c0-0.517 0.413-0.937 0.937-0.937 0.518 0 0.937 0.42 0.937 0.937v0 5.318h0.622v-3.442c0-0.518 0.42-0.937 0.937-0.937v0c0.518 0 0.937 0.42 0.937 0.937v0z"></path>
</svg>
