<!-- Generated by IcoMoon.io -->
<svg version="1.1" xmlns="http://www.w3.org/2000/svg" width="18" height="18" viewBox="0 0 18 18">
<title>hand</title>
<path fill="#4d5ee0" d="M4.935 14.25h6v2.25h-6v-2.25zM14.805 8.7c-0.143-0.15-0.338-0.24-0.555-0.24l-0.165 0.022-2.4 1.268v-0.877l0.382-6.697c0.023-0.413-0.292-0.773-0.705-0.795s-0.773 0.292-0.795 0.705l-0.202 3.518h-0.18l-0.78 0.082v-4.185c0-0.414-0.336-0.75-0.75-0.75v0c-0.405 0-0.75 0.338-0.75 0.75v4.807l-0.615 0.278-0.518-4.095c-0.053-0.413-0.428-0.705-0.84-0.652-0.413 0.037-0.705 0.413-0.652 0.84l0.577 4.545-0.285 0.127c-0.098 0.037-0.188 0.098-0.27 0.15l-0.825-2.917c-0.12-0.428-0.54-0.683-0.945-0.577-0.397 0.12-0.622 0.555-0.503 0.982l1.927 6.84c0 0.023 0.015 0.053 0.022 0.075l0.022 0.098h0.008c0.165 0.428 0.593 0.75 1.050 0.75h4.875c0.293 0 0.555-0.12 0.75-0.323l3.69-3.15-0.57-0.577z"></path>
</svg>
