<!-- Generated by IcoMoon.io -->
<svg version="1.1" xmlns="http://www.w3.org/2000/svg" width="18" height="18" viewBox="0 0 18 18">
<title>image-search</title>
<path fill="#4d5ee0" d="M11.625 1.5c1.875 0 3.375 1.5 3.375 3.375 0 0.66-0.188 1.282-0.518 1.8l2.31 2.325-1.043 1.043-2.34-2.303c-0.518 0.323-1.133 0.51-1.785 0.51-1.875 0-3.375-1.5-3.375-3.375s1.5-3.375 3.375-3.375zM11.625 3c-1.036 0-1.875 0.839-1.875 1.875v0c0 1.036 0.839 1.875 1.875 1.875v0c1.036 0 1.875-0.839 1.875-1.875v0c0-1.036-0.839-1.875-1.875-1.875v0zM5.625 10.875l-2.625 3.375h10.5l-3.375-4.5-2.625 3.375-1.875-2.25zM15 15c0 0.828-0.672 1.5-1.5 1.5v0h-10.5c-0.828 0-1.5-0.672-1.5-1.5v0-10.5c0-0.828 0.672-1.5 1.5-1.5v0h4.125c-0.24 0.577-0.375 1.207-0.375 1.875 0 2.692 2.183 4.875 4.875 4.875v0c0.51 0 1.005-0.082 1.47-0.225l1.905 1.905v3.57z"></path>
</svg>
