<!-- Generated by IcoMoon.io -->
<svg version="1.1" xmlns="http://www.w3.org/2000/svg" width="18" height="18" viewBox="0 0 18 18">
<title>kubernetes</title>
<path fill="#4d5ee0" d="M10.463 10.125h-0.172c-0.135 0.082-0.195 0.24-0.135 0.375l0.645 1.583c0.622-0.397 1.095-0.99 1.342-1.688l-1.68-0.27zM7.875 10.342c-0.045-0.127-0.157-0.217-0.285-0.217h-0.060l-1.665 0.278c0.247 0.69 0.72 1.275 1.342 1.673l0.638-1.553v-0.022c0.030-0.037 0.030-0.105 0.030-0.158zM9.248 10.95c-0.075-0.135-0.248-0.188-0.383-0.112-0.053 0.037-0.090 0.060-0.112 0.112h-0.008l-0.818 1.477c0.585 0.195 1.215 0.233 1.823 0.090 0.105-0.022 0.217-0.053 0.323-0.090l-0.818-1.477h-0.008zM11.835 7.523l-1.26 1.103 0.008 0.022c-0.12 0.105-0.135 0.285-0.030 0.397 0.037 0.045 0.082 0.075 0.135 0.090l0.008 0.008 1.628 0.465c0.053-0.728-0.105-1.462-0.487-2.085zM9.503 7.642c0.008 0.157 0.135 0.278 0.293 0.27 0.060 0 0.113-0.015 0.158-0.037h0.008l1.373-0.982c-0.525-0.518-1.207-0.84-1.927-0.93l0.098 1.68zM8.047 7.875c0.127 0.082 0.3 0.060 0.39-0.067 0.037-0.045 0.053-0.098 0.060-0.157h0.008l0.090-1.688c-0.112 0.015-0.225 0.037-0.345 0.060-0.6 0.135-1.155 0.435-1.59 0.87l1.38 0.982h0.008zM7.305 9.143c0.15-0.037 0.24-0.195 0.195-0.345 0-0.060-0.037-0.105-0.082-0.143v-0.008l-1.26-1.147c-0.39 0.645-0.555 1.38-0.473 2.115l1.62-0.465v-0.008zM8.535 9.638l0.465 0.225 0.465-0.225 0.113-0.503-0.323-0.397h-0.518l-0.323 0.397 0.12 0.503zM16.703 10.628l-1.328-5.752c-0.068-0.315-0.278-0.57-0.555-0.705l-5.378-2.573c-0.278-0.127-0.607-0.127-0.892 0l-5.37 2.573c-0.278 0.135-0.487 0.39-0.555 0.705l-1.328 5.752c-0.037 0.15-0.037 0.3 0 0.442 0.008 0.045 0.022 0.090 0.037 0.135 0.022 0.068 0.060 0.143 0.098 0.203 0.023 0.030 0.037 0.060 0.068 0.082l3.713 4.635c0.015 0 0.037 0.030 0.037 0.045 0.075 0.067 0.143 0.12 0.21 0.165 0.090 0.060 0.195 0.105 0.3 0.127 0.082 0.037 0.172 0.037 0.24 0.037h6.090c0.053 0 0.105-0.023 0.15-0.037 0.037-0.008 0.075-0.023 0.105-0.030 0.030-0.015 0.053-0.022 0.082-0.037 0.037-0.015 0.075-0.037 0.112-0.060 0.090-0.060 0.172-0.135 0.248-0.21l0.113-0.15 3.6-4.485c0.075-0.090 0.127-0.188 0.165-0.285 0.015-0.045 0.030-0.090 0.037-0.135 0.037-0.143 0.037-0.3 0-0.442zM11.13 12.87c0.015 0.045 0.030 0.090 0.053 0.127-0.030 0.060-0.045 0.127-0.022 0.195 0.090 0.18 0.172 0.345 0.285 0.51 0.060 0.082 0.12 0.172 0.18 0.255 0 0.022 0.023 0.060 0.030 0.090 0.090 0.15 0.045 0.345-0.112 0.442s-0.352 0.037-0.442-0.112c-0.008-0.022-0.015-0.037-0.022-0.060-0.015-0.023-0.030-0.068-0.045-0.068-0.037-0.113-0.068-0.21-0.090-0.307-0.067-0.188-0.127-0.368-0.225-0.54-0.037-0.053-0.098-0.090-0.158-0.105l-0.060-0.12c-0.967 0.36-2.025 0.36-2.978-0.008l-0.075 0.135c-0.053 0.008-0.105 0.030-0.143 0.068-0.105 0.18-0.18 0.368-0.248 0.577-0.022 0.098-0.053 0.195-0.090 0.3-0.015 0-0.030 0.053-0.045 0.075-0.060 0.165-0.24 0.255-0.413 0.195-0.165-0.060-0.255-0.24-0.195-0.413 0.008-0.023 0.022-0.037 0.030-0.060 0.030-0.022 0.030-0.060 0.030-0.082 0.067-0.090 0.12-0.172 0.18-0.262 0.12-0.158 0.217-0.338 0.292-0.518 0.008-0.060 0-0.127-0.022-0.188l0.053-0.135c-0.877-0.525-1.538-1.342-1.853-2.318l-0.15 0.022c-0.045-0.037-0.112-0.068-0.172-0.068-0.202 0.037-0.383 0.098-0.577 0.165-0.082 0.045-0.18 0.082-0.278 0.113-0.022 0.008-0.053 0.015-0.098 0.022-0.165 0.053-0.345-0.037-0.405-0.202-0.053-0.172 0.030-0.352 0.21-0.413 0.015 0 0.037-0.008 0.060-0.008v-0.008h0.008l0.082-0.015c0.105-0.030 0.21-0.030 0.307-0.030 0.195 0 0.39-0.045 0.577-0.090 0.060-0.037 0.105-0.082 0.143-0.143l0.143-0.037c-0.157-1.020 0.075-2.048 0.645-2.903l-0.105-0.090c0-0.067-0.022-0.135-0.060-0.188-0.15-0.127-0.307-0.24-0.48-0.338-0.090-0.045-0.18-0.098-0.27-0.157-0.015-0.015-0.045-0.037-0.060-0.053l-0.008-0.008c-0.15-0.12-0.188-0.315-0.082-0.473 0.067-0.075 0.157-0.112 0.262-0.112 0.082 0.008 0.157 0.037 0.225 0.090l0.067 0.053c0.075 0.067 0.143 0.15 0.21 0.225 0.135 0.143 0.278 0.278 0.435 0.39 0.060 0.030 0.127 0.037 0.195 0.022l0.112 0.082c0.563-0.6 1.297-1.020 2.1-1.2 0.188-0.045 0.39-0.075 0.585-0.090l0.008-0.135c0.053-0.045 0.082-0.098 0.105-0.172 0.008-0.195-0.008-0.39-0.037-0.577-0.022-0.098-0.037-0.203-0.045-0.307v-0.090c-0.015-0.18 0.112-0.337 0.292-0.36s0.33 0.112 0.352 0.285v0.165c-0.008 0.105-0.022 0.21-0.045 0.307-0.030 0.188-0.045 0.382-0.037 0.577 0.015 0.075 0.053 0.127 0.105 0.165l0.008 0.143c1.020 0.090 1.965 0.548 2.67 1.29l0.12-0.090c0.068 0.015 0.135 0.008 0.195-0.022 0.158-0.112 0.307-0.247 0.435-0.39 0.068-0.075 0.135-0.15 0.21-0.225 0.022-0.015 0.053-0.045 0.075-0.045 0.127-0.135 0.33-0.135 0.442 0 0.143 0.12 0.135 0.323 0 0.45 0 0.015-0.023 0.030-0.045 0.045-0.015 0.015-0.045 0.037-0.068 0.053-0.082 0.060-0.172 0.112-0.262 0.157-0.172 0.098-0.338 0.21-0.48 0.338-0.045 0.053-0.068 0.112-0.060 0.18l-0.12 0.105c0.577 0.847 0.81 1.882 0.66 2.895l0.143 0.037c0.030 0.060 0.082 0.105 0.143 0.135 0.188 0.053 0.383 0.082 0.577 0.105h0.307c0.022 0.023 0.060 0.030 0.090 0.037 0.18 0.023 0.3 0.188 0.278 0.368-0.037 0.172-0.18 0.3-0.36 0.278-0.022-0.008-0.053-0.008-0.053-0.015v-0.008c-0.045 0-0.075-0.008-0.105-0.015-0.098-0.030-0.188-0.068-0.27-0.112-0.195-0.075-0.375-0.127-0.577-0.158-0.068 0-0.127 0-0.172 0.060-0.053-0.008-0.098-0.015-0.143-0.022-0.307 0.982-0.982 1.808-1.853 2.332z"></path>
</svg>
