<!-- Generated by IcoMoon.io -->
<svg version="1.1" xmlns="http://www.w3.org/2000/svg" width="18" height="18" viewBox="0 0 18 18">
<title>language-markdown</title>
<path fill="#4d5ee0" d="M15.42 13.5h-12.84c-0.593 0-1.080-0.473-1.080-1.057v-6.885c0-0.585 0.487-1.058 1.080-1.058h12.84c0.593 0 1.080 0.473 1.080 1.057v6.885c0 0.585-0.487 1.057-1.080 1.057zM5.107 11.393v-2.745l1.44 1.763 1.44-1.763v2.745h1.448v-4.785h-1.448l-1.44 1.763-1.44-1.763h-1.44v4.785h1.44zM14.768 9h-1.44v-2.393h-1.44v2.393h-1.448l2.168 2.46 2.16-2.46z"></path>
</svg>
