<!-- Generated by IcoMoon.io -->
<svg version="1.1" xmlns="http://www.w3.org/2000/svg" width="18" height="18" viewBox="0 0 18 18">
<title>link-variant</title>
<path fill="#4d5ee0" d="M7.942 10.057c0.307 0.293 0.307 0.773 0 1.065-0.293 0.292-0.773 0.292-1.065 0-1.463-1.463-1.463-3.84 0-5.302v0l2.655-2.655c1.463-1.462 3.84-1.462 5.302 0s1.463 3.84 0 5.302l-1.117 1.117c0.008-0.615-0.090-1.23-0.3-1.815l0.352-0.36c0.885-0.878 0.885-2.303 0-3.18-0.877-0.885-2.303-0.885-3.18 0l-2.647 2.647c-0.885 0.878-0.885 2.303 0 3.18zM10.057 6.877c0.293-0.293 0.773-0.293 1.065 0 1.463 1.462 1.463 3.84 0 5.302v0l-2.655 2.655c-1.463 1.463-3.84 1.463-5.302 0s-1.463-3.84 0-5.302l1.117-1.117c-0.008 0.615 0.090 1.23 0.3 1.822l-0.352 0.352c-0.885 0.877-0.885 2.303 0 3.18 0.878 0.885 2.303 0.885 3.18 0l2.647-2.647c0.885-0.877 0.885-2.303 0-3.18-0.307-0.292-0.307-0.773 0-1.065z"></path>
</svg>
