<!-- Generated by IcoMoon.io -->
<svg version="1.1" xmlns="http://www.w3.org/2000/svg" width="18" height="18" viewBox="0 0 18 18">
<title>map-marker-plus</title>
<path fill="#4d5ee0" d="M6.75 8.625c1.036 0 1.875-0.839 1.875-1.875v0c0-1.036-0.839-1.875-1.875-1.875v0c-1.036 0-1.875 0.839-1.875 1.875v0c0 1.036 0.839 1.875 1.875 1.875v0zM6.75 1.5c2.895 0 5.25 2.348 5.25 5.25 0 3.938-5.25 9.75-5.25 9.75s-5.25-5.813-5.25-9.75c0-2.899 2.351-5.25 5.25-5.25v0zM11.25 12.75h2.25v-2.25h1.5v2.25h2.25v1.5h-2.25v2.25h-1.5v-2.25h-2.25v-1.5z"></path>
</svg>
