<!-- Generated by IcoMoon.io -->
<svg version="1.1" xmlns="http://www.w3.org/2000/svg" width="18" height="18" viewBox="0 0 18 18">
<title>map-marker-remove</title>
<path fill="#4d5ee0" d="M6.75 1.5c-2.895 0-5.25 2.355-5.25 5.25 0 3.938 5.25 9.75 5.25 9.75s5.25-5.813 5.25-9.75c0-2.899-2.351-5.25-5.25-5.25v0zM6.75 4.875c1.036 0 1.875 0.839 1.875 1.875v0c0 1.036-0.839 1.875-1.875 1.875v0c-1.036 0-1.875-0.839-1.875-1.875v0c0-1.036 0.839-1.875 1.875-1.875v0zM12.435 10.62l-1.058 1.065 1.808 1.815-1.808 1.808 1.058 1.057 1.815-1.808 1.808 1.808 1.065-1.057-1.815-1.808 1.815-1.815-1.065-1.065-1.808 1.815z"></path>
</svg>
