<!-- Generated by IcoMoon.io -->
<svg version="1.1" xmlns="http://www.w3.org/2000/svg" width="18" height="18" viewBox="0 0 18 18">
<title>microsoft-edge</title>
<path fill="#4d5ee0" d="M8.145 11.528c-0.517-0.577-0.87-1.268-0.982-2.040-0.225 0.345-0.413 0.72-0.548 1.125-0.69 2.062 0.51 4.635 2.55 5.385 1.755 0.585 3.727-0.458 5.025-1.598 0.195-0.262 1.732-1.62 0.967-1.77-2.265 1.162-5.265 0.833-7.012-1.102zM8.595 7.17c0.78-0.008 0.030-0.323-0.292-0.563-0.78-0.428-1.695-0.638-2.58-0.638-2.888 0.030-4.976 1.837-3.997 4.83 0.705 2.91 3.232 5.25 6.218 5.625-1.538-0.967-2.467-2.782-2.467-4.59 0.060-1.898 1.23-4.125 3.12-4.665zM2.085 6.18c2.28-1.68 5.91-1.545 7.875 0.57 0.765 0.833 1.29 2.25 0.593 3.277-1.305 1.41 2.31 1.598 3.083 1.387 2.805-0.54 3.547-3.803 2.213-6.053-1.275-2.55-4.103-3.885-6.877-3.862-3.045-0.053-5.783 1.875-6.885 4.68z"></path>
</svg>
