<!-- Generated by IcoMoon.io -->
<svg version="1.1" xmlns="http://www.w3.org/2000/svg" width="18" height="18" viewBox="0 0 18 18">
<title>microsoft-visual-studio-code</title>
<path fill="#4d5ee0" d="M12.75 12.353v-6.81l-4.5 3.405zM1.665 6.893c-0.225-0.24-0.233-0.615-0.015-0.863l0.9-0.833c0.15-0.135 0.518-0.195 0.788 0l2.565 1.958 5.948-5.437c0.24-0.24 0.652-0.338 1.125-0.090l3 1.432c0.27 0.158 0.525 0.405 0.525 0.863v10.125c0 0.3-0.217 0.622-0.45 0.75l-3.3 1.575c-0.24 0.098-0.69 0.008-0.847-0.15l-6.015-5.475-2.55 1.95c-0.285 0.195-0.638 0.143-0.788 0l-0.9-0.825c-0.24-0.248-0.21-0.652 0.037-0.9l2.25-2.025z"></path>
</svg>
