<!-- Generated by IcoMoon.io -->
<svg version="1.1" xmlns="http://www.w3.org/2000/svg" width="18" height="18" viewBox="0 0 18 18">
<title>numeric</title>
<path fill="#4d5ee0" d="M3 12.75v-6h-1.5v-1.5h3v7.5h-1.5zM16.5 11.25c0 0.832-0.675 1.5-1.5 1.5h-3v-1.5h3v-1.5h-1.5v-1.5h1.5v-1.5h-3v-1.5h3c0.828 0 1.5 0.672 1.5 1.5v0 1.125c0 0.621-0.504 1.125-1.125 1.125v0c0.621 0 1.125 0.504 1.125 1.125v0 1.125zM10.5 11.25v1.5h-4.5v-3c0-0.833 0.675-1.5 1.5-1.5h1.5v-1.5h-3v-1.5h3c0.828 0 1.5 0.672 1.5 1.5v0 1.5c0 0.833-0.675 1.5-1.5 1.5h-1.5v1.5h3z"></path>
</svg>
