<!-- Generated by IcoMoon.io -->
<svg version="1.1" xmlns="http://www.w3.org/2000/svg" width="18" height="18" viewBox="0 0 18 18">
<title>osisoft</title>
<path fill="#4d5ee0" d="M15.349 13.012c-0.828 1.315-1.524 1.711-2.82 1.711-1.353-0.038-3.14-0.939-3.797-3.497-0.49-1.881 0.152-4.079 0.152-4.079 0.114-0.019 0.243-0.038 0.376-0.076 1.973-0.376 2.706-1.486 3.197-2.425 0.395-0.771 0.677-1.654 0.734-1.881 0.753 0.509 1.41 1.167 1.973 1.935 0.771 1.11 1.205 2.33 1.334 3.573 0.171 1.973-0.319 3.421-1.148 4.74v0zM4.014 13.012c-0.019-2.33 1.053-4.174 1.824-5.378-0.114 0.019-0.171 0.038-0.338 0.076-2.144 0.582-2.634 2.125-2.634 2.125s0.206-1.277 0.753-2.125c0.095-0.133 0.601-1.334 2.387-2.049 1.711-0.696 2.877-0.658 4.736-1.486 1.467-0.658 2.201-1.315 2.368-1.486-2.498-1.616-5.846-1.692-8.439 0.114-3.386 2.349-4.212 7.032-1.843 10.453 0.433 0.62 0.939 1.148 1.486 1.597-0.171-0.262-0.281-0.806-0.3-1.84v0zM9.617 16.152c-0.828-0.3-1.935-1.334-2.406-3.364-0.433-1.881 0.281-4.512 0.582-5.451-0.3 0.038-0.582 0.095-0.866 0.133-0.319 0.563-1.711 3.31-1.277 6.26 0.206 1.391 0.79 2.106 1.167 2.463 1.372 0.433 2.858 0.471 4.268 0.076-0.547 0.070-1.018 0.032-1.467-0.117v0z"></path>
</svg>
