<!-- Generated by IcoMoon.io -->
<svg version="1.1" xmlns="http://www.w3.org/2000/svg" width="18" height="18" viewBox="0 0 18 18">
<title>pdf-box</title>
<path fill="#4d5ee0" d="M9 7.875h0.75v2.25h-0.75v-2.25zM5.25 8.625h0.75v-0.75h-0.75v0.75zM15 4.5v9c0 0.828-0.672 1.5-1.5 1.5v0h-9c-0.828 0-1.5-0.672-1.5-1.5v0-9c0-0.828 0.672-1.5 1.5-1.5v0h9c0.828 0 1.5 0.672 1.5 1.5v0zM7.125 7.875c0-0.621-0.504-1.125-1.125-1.125v0h-1.875v4.5h1.125v-1.5h0.75c0.621 0 1.125-0.504 1.125-1.125v0-0.75zM10.875 7.875c0-0.621-0.504-1.125-1.125-1.125v0h-1.875v4.5h1.875c0.621 0 1.125-0.504 1.125-1.125v0-2.25zM13.875 6.75h-2.25v4.5h1.125v-1.5h1.125v-1.125h-1.125v-0.75h1.125v-1.125z"></path>
</svg>
