<!-- Generated by IcoMoon.io -->
<svg version="1.1" xmlns="http://www.w3.org/2000/svg" width="18" height="18" viewBox="0 0 18 18">
<title>qrcode</title>
<path fill="#4d5ee0" d="M2.25 8.25h1.5v1.5h-1.5v-1.5zM8.25 3.75h1.5v3h-1.5v-3zM6.75 8.25h3v3h-1.5v-1.5h-1.5v-1.5zM11.25 8.25h1.5v1.5h1.5v-1.5h1.5v1.5h-1.5v1.5h1.5v3h-1.5v1.5h-1.5v-1.5h-3v1.5h-1.5v-3h3v-1.5h1.5v-1.5h-1.5v-1.5zM14.25 14.25v-3h-1.5v3h1.5zM11.25 2.25h4.5v4.5h-4.5v-4.5zM12.75 3.75v1.5h1.5v-1.5h-1.5zM2.25 2.25h4.5v4.5h-4.5v-4.5zM3.75 3.75v1.5h1.5v-1.5h-1.5zM2.25 11.25h4.5v4.5h-4.5v-4.5zM3.75 12.75v1.5h1.5v-1.5h-1.5z"></path>
</svg>
