<!-- Generated by IcoMoon.io -->
<svg version="1.1" xmlns="http://www.w3.org/2000/svg" width="18" height="18" viewBox="0 0 18 18">
<title>reflect-horizontal</title>
<path fill="#4d5ee0" d="M16.5 15h-6c-0.414 0-0.75-0.336-0.75-0.75v0-10.522c0-0.352 0.233-0.638 0.555-0.728 0.338-0.090 0.683 0.060 0.847 0.352l6.015 10.522c0.135 0.233 0.135 0.518 0 0.75s-0.383 0.375-0.667 0.375zM1.5 15c-0.285 0-0.532-0.143-0.667-0.375s-0.135-0.518 0-0.75l6.015-10.522c0.165-0.292 0.51-0.442 0.847-0.352 0.323 0.090 0.555 0.375 0.555 0.728v10.522c0 0.414-0.336 0.75-0.75 0.75v0h-6zM6.75 13.5v-6.945l-3.968 6.945h3.968z"></path>
</svg>
