<!-- Generated by IcoMoon.io -->
<svg version="1.1" xmlns="http://www.w3.org/2000/svg" width="18" height="18" viewBox="0 0 18 18">
<title>refresh-circle</title>
<path fill="#4d5ee0" d="M9 1.5c-4.142 0-7.5 3.358-7.5 7.5s3.358 7.5 7.5 7.5c4.142 0 7.5-3.358 7.5-7.5v0c0-4.142-3.358-7.5-7.5-7.5v0zM13.5 8.25h-3.75l1.358-1.358c-0.535-0.549-1.281-0.89-2.107-0.892h-0c-0.003-0-0.006-0-0.010-0-1.657 0-3 1.343-3 3s1.343 3 3 3c1.39 0 2.56-0.946 2.9-2.229l0.005-0.021h1.538c-0.372 2.142-2.217 3.75-4.437 3.75-2.485 0-4.5-2.015-4.5-4.5s2.015-4.5 4.5-4.5c0.002 0 0.003 0 0.005 0h-0c1.24 0.002 2.361 0.512 3.164 1.334l0.001 0.001 1.335-1.335z"></path>
</svg>
