<!-- Generated by IcoMoon.io -->
<svg version="1.1" xmlns="http://www.w3.org/2000/svg" width="18" height="18" viewBox="0 0 18 18">
<title>safari</title>
<path fill="#4d5ee0" d="M8.415 9.024c0-0.279 0.202-0.542 0.499-0.542 0.273 0 0.533 0.196 0.533 0.493 0 0.279-0.196 0.542-0.493 0.542-0.276 0-0.539-0.205-0.539-0.493zM16.594 9c0 4.195-3.399 7.594-7.594 7.594s-7.594-3.399-7.594-7.594 3.399-7.594 7.594-7.594 7.594 3.399 7.594 7.594zM15.779 9c0-3.745-3.034-6.779-6.779-6.779s-6.779 3.034-6.779 6.779 3.034 6.779 6.779 6.779 6.779-3.034 6.779-6.779zM13.559 11.958c0 0.11 0.398 0.312 0.499 0.374-0.839 1.271-2.137 2.186-3.61 2.551l-0.135-0.566c-0.009-0.076-0.058-0.086-0.129-0.086-0.058 0-0.092 0.086-0.086 0.129l0.135 0.576c-0.407 0.086-0.821 0.129-1.237 0.129-1.111 0-2.205-0.312-3.154-0.891 0.052-0.086 0.374-0.551 0.374-0.618 0-0.058-0.052-0.11-0.11-0.11-0.119 0-0.374 0.508-0.45 0.609-1.28-0.848-2.205-2.162-2.56-3.662l0.585-0.129c0.067-0.018 0.086-0.067 0.086-0.129 0-0.058-0.086-0.092-0.135-0.086l-0.573 0.132c-0.077-0.389-0.119-0.781-0.119-1.179 0-1.136 0.321-2.254 0.925-3.212 0.086 0.052 0.493 0.331 0.56 0.331 0.058 0 0.11-0.043 0.11-0.101 0-0.119-0.45-0.346-0.551-0.416 0.863-1.262 2.177-2.171 3.668-2.508l0.129 0.566c0.018 0.067 0.067 0.086 0.129 0.086s0.092-0.086 0.086-0.135l-0.129-0.56c0.374-0.067 0.753-0.11 1.136-0.11 1.136 0 2.244 0.321 3.212 0.925-0.058 0.086-0.331 0.484-0.331 0.551 0 0.058 0.043 0.11 0.101 0.11 0.119 0 0.346-0.441 0.407-0.542 1.255 0.848 2.153 2.143 2.502 3.619l-0.475 0.101c-0.076 0.018-0.086 0.067-0.086 0.135 0 0.058 0.086 0.092 0.129 0.086l0.484-0.11c0.076 0.389 0.119 0.787 0.119 1.185 0 1.111-0.306 2.205-0.882 3.145-0.086-0.043-0.441-0.297-0.508-0.297-0.064 0-0.116 0.052-0.116 0.11zM12.543 4.542c-0.398 0.373-4.109 3.788-4.213 3.965l-2.958 4.915c0.389-0.364 4.109-3.797 4.204-3.959l2.967-4.921z"></path>
</svg>
