<!-- Generated by IcoMoon.io -->
<svg version="1.1" xmlns="http://www.w3.org/2000/svg" width="18" height="18" viewBox="0 0 18 18">
<title>select</title>
<path fill="#4d5ee0" d="M3 2.25h0.75v1.5h-1.5v-0.75c0-0.414 0.336-0.75 0.75-0.75v0zM15 2.25c0.414 0 0.75 0.336 0.75 0.75v0 0.75h-1.5v-1.5h0.75zM11.25 3.75v-1.5h1.5v1.5h-1.5zM8.25 3.75v-1.5h1.5v1.5h-1.5zM5.25 3.75v-1.5h1.5v1.5h-1.5zM15.75 15c0 0.414-0.336 0.75-0.75 0.75v0h-0.75v-1.5h1.5v0.75zM11.25 15.75v-1.5h1.5v1.5h-1.5zM8.25 15.75v-1.5h1.5v1.5h-1.5zM5.25 15.75v-1.5h1.5v1.5h-1.5zM3 15.75c-0.414 0-0.75-0.336-0.75-0.75v0-0.75h1.5v1.5h-0.75zM2.25 11.25h1.5v1.5h-1.5v-1.5zM15.75 11.25v1.5h-1.5v-1.5h1.5zM2.25 8.25h1.5v1.5h-1.5v-1.5zM15.75 8.25v1.5h-1.5v-1.5h1.5zM2.25 5.25h1.5v1.5h-1.5v-1.5zM15.75 5.25v1.5h-1.5v-1.5h1.5z"></path>
</svg>
