<!-- Generated by IcoMoon.io -->
<svg version="1.1" xmlns="http://www.w3.org/2000/svg" width="18" height="18" viewBox="0 0 18 18">
<title>share-variant</title>
<path fill="#4d5ee0" d="M13.5 12.060c-0.57 0-1.080 0.225-1.47 0.577l-5.347-3.113c0.037-0.172 0.067-0.345 0.067-0.525s-0.030-0.352-0.067-0.525l5.288-3.082c0.405 0.375 0.937 0.607 1.53 0.607 1.243 0 2.25-1.007 2.25-2.25v0c0-1.243-1.007-2.25-2.25-2.25v0c-1.243 0-2.25 1.007-2.25 2.25v0c0 0.18 0.030 0.352 0.068 0.525l-5.288 3.083c-0.405-0.375-0.937-0.608-1.53-0.608-1.243 0-2.25 1.007-2.25 2.25v0c0 1.243 1.007 2.25 2.25 2.25v0c0.593 0 1.125-0.233 1.53-0.607l5.34 3.113c-0.037 0.158-0.060 0.323-0.060 0.495 0 1.207 0.982 2.183 2.19 2.183s2.19-0.975 2.19-2.183c0-1.209-0.98-2.19-2.19-2.19v0z"></path>
</svg>
