<!-- Generated by IcoMoon.io -->
<svg version="1.1" xmlns="http://www.w3.org/2000/svg" width="18" height="18" viewBox="0 0 18 18">
<title>shield-account</title>
<path fill="#4d5ee0" d="M9 0.75l-6.75 3v4.5c0 4.162 2.88 8.055 6.75 9 3.87-0.945 6.75-4.838 6.75-9v-4.5l-6.75-3zM9 3.75c1.243 0 2.25 1.007 2.25 2.25v0c0 1.243-1.007 2.25-2.25 2.25v0c-1.243 0-2.25-1.007-2.25-2.25v0c0-1.243 1.007-2.25 2.25-2.25v0zM12.848 12.75c-0.908 1.387-2.265 2.43-3.848 2.94-1.583-0.51-2.94-1.553-3.848-2.94-0.255-0.375-0.473-0.75-0.652-1.148 0-1.237 2.033-2.25 4.5-2.25s4.5 0.99 4.5 2.25c-0.18 0.397-0.397 0.773-0.652 1.148z"></path>
</svg>
