<!-- Generated by IcoMoon.io -->
<svg version="1.1" xmlns="http://www.w3.org/2000/svg" width="18" height="18" viewBox="0 0 18 18">
<title>sort-alphabetical-variant</title>
<path fill="#4d5ee0" d="M6.938 3.75l2.438-2.438 2.438 2.438h-4.875zM11.813 14.25l-2.438 2.438-2.438-2.438h4.875zM6.668 10.725h-2.168l-0.54 2.025h-1.777l2.317-7.5h2.25l2.348 7.5h-1.845l-0.585-2.025zM4.747 9.51h1.673l-0.473-1.59-0.195-0.728-0.188-0.72h-0.022l-0.165 0.728-0.18 0.735-0.45 1.575zM9.787 12.75v-0.945l3.563-5.077v-0.045h-3.225v-1.432h5.422v1.005l-3.48 4.995v0.060h3.533v1.44h-5.813z"></path>
</svg>
