<!-- Generated by IcoMoon.io -->
<svg version="1.1" xmlns="http://www.w3.org/2000/svg" width="18" height="18" viewBox="0 0 18 18">
<title>sort-bool-descending</title>
<path fill="#4d5ee0" d="M14.25 5.25h2.25l-3-3-3 3h2.25v10.5h1.5zM3.75 5.25c0 0.825 0.675 1.5 1.5 1.5s1.5-0.675 1.5-1.5c0-0.825-0.675-1.5-1.5-1.5s-1.5 0.675-1.5 1.5zM5.25 2.25c1.657 0 3 1.342 3 3s-1.342 3-3 3c-1.657 0-3-1.342-3-3s1.342-3 3-3zM5.25 9.75c-1.657 0-3 1.342-3 3s1.342 3 3 3c1.657 0 3-1.342 3-3s-1.342-3-3-3z"></path>
</svg>
