<!-- Generated by IcoMoon.io -->
<svg version="1.1" xmlns="http://www.w3.org/2000/svg" width="18" height="18" viewBox="0 0 18 18">
<title>sort-numeric-descending</title>
<path fill="#4d5ee0" d="M14.25 5.25h2.25l-3-3-3 3h2.25v10.5h1.5zM6.75 15.75h-3v-1.5h3v-0.75h-1.5c-0.825 0-1.5-0.667-1.5-1.5v-0.75c0-0.825 0.675-1.5 1.5-1.5h1.5c0.833 0 1.5 0.675 1.5 1.5v3c0 0.832-0.667 1.5-1.5 1.5zM6.75 11.25h-1.5v0.75h1.5zM5.25 2.25h1.5c0.833 0 1.5 0.675 1.5 1.5v3c0 0.833-0.667 1.5-1.5 1.5h-1.5c-0.825 0-1.5-0.667-1.5-1.5v-3c0-0.825 0.675-1.5 1.5-1.5zM5.25 6.75h1.5v-3h-1.5z"></path>
</svg>
