<!-- Generated by IcoMoon.io -->
<svg version="1.1" xmlns="http://www.w3.org/2000/svg" width="18" height="18" viewBox="0 0 18 18">
<title>square-edit-outline</title>
<path fill="#4d5ee0" d="M3.75 2.25c-0.833 0-1.5 0.667-1.5 1.5v10.5c0 0.828 0.672 1.5 1.5 1.5v0h10.5c0.828 0 1.5-0.672 1.5-1.5v0-5.25h-1.5v5.25h-10.5v-10.5h5.25v-1.5h-5.25zM13.335 3c-0.127 0-0.262 0.053-0.36 0.15l-0.915 0.908 1.875 1.875 0.915-0.908c0.195-0.195 0.195-0.525 0-0.712l-1.162-1.162c-0.098-0.098-0.225-0.15-0.352-0.15zM11.528 4.59l-5.527 5.535v1.875h1.875l5.527-5.535-1.875-1.875z"></path>
</svg>
