<!-- Generated by IcoMoon.io -->
<svg version="1.1" xmlns="http://www.w3.org/2000/svg" width="18" height="18" viewBox="0 0 18 18">
<title>tag</title>
<path fill="#4d5ee0" d="M4.125 5.25c-0.621 0-1.125-0.504-1.125-1.125v0c0-0.621 0.504-1.125 1.125-1.125v0c0.621 0 1.125 0.504 1.125 1.125v0c0 0.621-0.504 1.125-1.125 1.125v0zM16.057 8.685l-6.75-6.75c-0.27-0.27-0.645-0.435-1.057-0.435h-5.25c-0.833 0-1.5 0.667-1.5 1.5v5.25c0 0.413 0.165 0.787 0.442 1.058l6.742 6.75c0.278 0.27 0.653 0.442 1.065 0.442s0.787-0.172 1.057-0.442l5.25-5.25c0.278-0.27 0.442-0.645 0.442-1.057 0-0.42-0.172-0.795-0.442-1.065z"></path>
</svg>
