<!-- Generated by IcoMoon.io -->
<svg version="1.1" xmlns="http://www.w3.org/2000/svg" width="18" height="18" viewBox="0 0 18 18">
<title>thumb-up-outline</title>
<path fill="#4d5ee0" d="M3.75 6.75v9h-3v-9h3zM6.75 15.75c-0.828 0-1.5-0.672-1.5-1.5v0-7.5c0-0.413 0.165-0.788 0.442-1.058l4.935-4.942 0.795 0.795c0.202 0.202 0.33 0.48 0.33 0.787l-0.022 0.24-0.712 3.428h4.733c0.832 0 1.5 0.675 1.5 1.5v1.5c0 0.195-0.037 0.375-0.105 0.548l-2.265 5.288c-0.225 0.54-0.757 0.915-1.38 0.915h-6.75zM6.75 14.25h6.772l2.228-5.25v-1.5h-6.592l0.847-3.99-3.255 3.263v7.478z"></path>
</svg>
