<!-- Generated by IcoMoon.io -->
<svg version="1.1" xmlns="http://www.w3.org/2000/svg" width="18" height="18" viewBox="0 0 18 18">
<title>ungroup</title>
<path fill="#4d5ee0" d="M1.5 1.5h3v0.75h5.25v-0.75h3v3h-0.75v2.25h1.5v-0.75h3v3h-0.75v4.5h0.75v3h-3v-0.75h-4.5v0.75h-3v-3h0.75v-1.5h-2.25v0.75h-3v-3h0.75v-5.25h-0.75v-3zM13.5 9v-0.75h-1.5v1.5h0.75v3h-3v-0.75h-1.5v1.5h0.75v0.75h4.5v-0.75h0.75v-4.5h-0.75zM9.75 4.5v-0.75h-5.25v0.75h-0.75v5.25h0.75v0.75h2.25v-1.5h-0.75v-3h3v0.75h1.5v-2.25h-0.75zM9 9h-0.75v1.5h1.5v-0.75h0.75v-1.5h-1.5v0.75z"></path>
</svg>
