<!-- Generated by IcoMoon.io -->
<svg version="1.1" xmlns="http://www.w3.org/2000/svg" width="18" height="18" viewBox="0 0 18 18">
<title>vector-arrange-above</title>
<path fill="#4d5ee0" d="M2.25 0.75c-0.833 0-1.5 0.667-1.5 1.5v8.25c0 0.832 0.667 1.5 1.5 1.5 2.753 0 5.498 0 8.25 0 0.832 0 1.5-0.667 1.5-1.5 0-2.753 0-5.498 0-8.25 0-0.832-0.667-1.5-1.5-1.5h-8.25zM2.25 2.25h8.25v8.25h-8.25v-8.25zM13.5 5.25v1.5h1.5v8.25h-8.25v-1.5h-1.5v1.5c0 0.832 0.667 1.5 1.5 1.5h8.25c0.833 0 1.5-0.667 1.5-1.5v-8.25c0-0.833-0.667-1.5-1.5-1.5h-1.5z"></path>
</svg>
