<!-- Generated by IcoMoon.io -->
<svg version="1.1" xmlns="http://www.w3.org/2000/svg" width="20" height="18" viewBox="0 0 20 18">
<title>youtube</title>
<path fill="#4d5ee0" d="M18.174 4.942c-0.193-0.728-0.762-1.3-1.485-1.495-1.31-0.353-6.564-0.353-6.564-0.353s-5.253 0-6.564 0.353c-0.723 0.195-1.292 0.767-1.485 1.495-0.351 1.319-0.351 4.070-0.351 4.070s0 2.751 0.351 4.070c0.193 0.728 0.762 1.277 1.485 1.471 1.31 0.353 6.564 0.353 6.564 0.353s5.253 0 6.564-0.353c0.723-0.194 1.292-0.744 1.485-1.471 0.351-1.319 0.351-4.070 0.351-4.070s0-2.751-0.351-4.070zM8.407 11.51v-4.996l4.391 2.498-4.391 2.498z"></path>
</svg>
