<!-- Generated by IcoMoon.io -->
<svg version="1.1" xmlns="http://www.w3.org/2000/svg" width="32" height="32" viewBox="0 0 32 32">
<title>cancel</title>
<path d="M16 2.667c7.364 0 13.333 5.97 13.333 13.333v0c0 7.364-5.97 13.333-13.333 13.333v0c-7.364 0-13.333-5.97-13.333-13.333v0c0-7.364 5.97-13.333 13.333-13.333v0zM16 5.333c-5.891 0-10.667 4.776-10.667 10.667v0c0 2.467 0.84 4.733 2.24 6.547l14.973-14.973c-1.813-1.4-4.080-2.24-6.547-2.24zM16 26.667c5.891 0 10.667-4.776 10.667-10.667v0c0-2.467-0.84-4.733-2.24-6.547l-14.973 14.973c1.813 1.4 4.080 2.24 6.547 2.24z"></path>
</svg>
