<svg xmlns="http://www.w3.org/2000/svg" height="18px" viewBox="0 0 24 24" width="18px" fill="#000000">
<path d="M16 4c-5.893 0-10.667 2.387-10.667 5.333s4.773 5.333 10.667 5.333c5.893 0 10.667-2.387 10.667-5.333s-4.773-5.333-10.667-5.333zM5.333 12v4c0 2.947 4.773 5.333 10.667 5.333s10.667-2.387 10.667-5.333v-4c0 2.947-4.773 5.333-10.667 5.333s-10.667-2.387-10.667-5.333zM5.333 18.667v4c0 2.947 4.773 5.333 10.667 5.333s10.667-2.387 10.667-5.333v-4c0 2.947-4.773 5.333-10.667 5.333s-10.667-2.387-10.667-5.333z"></path>
</svg>