<svg xmlns="http://www.w3.org/2000/svg" height="18px" viewBox="0 0 32 32" width="18px" fill="#000000">
<path d="M6.667 4v24h8v-4.667h2.667v4.667h8v-24h-18.667zM9.333 6.667h2.667v2.667h-2.667v-2.667zM14.667 6.667h2.667v2.667h-2.667v-2.667zM20 6.667h2.667v2.667h-2.667v-2.667zM9.333 12h2.667v2.667h-2.667v-2.667zM14.667 12h2.667v2.667h-2.667v-2.667zM20 12h2.667v2.667h-2.667v-2.667zM9.333 17.333h2.667v2.667h-2.667v-2.667zM14.667 17.333h2.667v2.667h-2.667v-2.667zM20 17.333h2.667v2.667h-2.667v-2.667zM9.333 22.667h2.667v2.667h-2.667v-2.667zM20 22.667h2.667v2.667h-2.667v-2.667z"></path>
</svg>