<!-- Generated by IcoMoon.io -->
<svg version="1.1" xmlns="http://www.w3.org/2000/svg" width="18" height="18" viewBox="0 0 32 32" fill="#4D5EE0">
<title>refresh</title>
<path d="M23.533 8.467c-1.933-1.933-4.587-3.133-7.533-3.133-5.891 0-10.667 4.776-10.667 10.667v0c0 5.891 4.776 10.667 10.667 10.667v0c4.973 0 9.12-3.4 10.307-8h-2.773c-1.093 3.107-4.053 5.333-7.533 5.333-4.418 0-8-3.582-8-8v0c0-4.418 3.582-8 8-8v0c2.213 0 4.187 0.92 5.627 2.373l-4.293 4.293h9.333v-9.333l-3.133 3.133z"></path>
</svg>
